<svg xmlns="http://www.w3.org/2000/svg" width="128" height="36" fill="none" xmlns:v="https://vecta.io/nano"><g clip-path="url(#D)"><path d="M40.735 10.638l-.786-.085c-.149-.016-.295.014-.433.086-.131.073-.24.179-.325.316l-.464.747c-.096.155-.283.205-.418.112-.097-.067-.141-.191-.121-.314l.139-.868a.89.89 0 0 0-.042-.46.74.74 0 0 0-.268-.34l-.65-.451c-.135-.093-.167-.295-.071-.45.069-.112.187-.17.297-.157l.786.085c.15.016.296-.013.425-.081s.245-.179.333-.32l.464-.747c.096-.155.283-.205.418-.112.097.067.141.191.121.314l-.139.868c-.026.164-.01.322.046.468a.74.74 0 0 0 .264.332l.65.451c.135.093.166.295.071.45-.069.112-.187.17-.297.157z" fill="#ff0089"/><path d="M37.6 14.032l-.591-.059c-.112-.011-.222.013-.327.071a.71.71 0 0 0-.248.247l-.356.583c-.074.121-.215.162-.316.091-.073-.051-.105-.147-.089-.242l.112-.674a.7.7 0 0 0-.027-.356c-.039-.105-.107-.196-.199-.261l-.486-.343c-.101-.071-.123-.227-.049-.348.053-.087.142-.133.225-.125l.592.058a.55.55 0 0 0 .321-.067c.098-.055.186-.141.254-.251l.356-.583c.074-.121.215-.162.316-.091.073.051.105.147.089.242l-.112.674c-.021.128-.011.25.03.362a.55.55 0 0 0 .196.255l.486.343c.101.071.123.227.049.348-.053.087-.142.133-.225.124z" fill="#1977f2"/><path d="M41.022 13.507l-.397-.032a.37.37 0 0 0-.221.055c-.068.043-.125.103-.17.179l-.249.419c-.051.087-.147.118-.214.069-.048-.035-.068-.102-.056-.17l.086-.479c.016-.091.011-.178-.013-.252s-.069-.137-.13-.182l-.321-.236c-.067-.049-.079-.159-.028-.245.037-.063.098-.097.153-.092l.397.032c.076.006.15-.013.217-.052a.52.52 0 0 0 .175-.182l.249-.419c.051-.087.147-.118.214-.069.048.035.068.102.056.17l-.086.479a.52.52 0 0 0 .015.256c.027.075.069.134.128.177l.321.236c.067.049.079.159.028.245-.037.063-.098.096-.153.092z" fill="#36c7e1"/><path d="M28.522 22.089c-.05 1.284.423 4.034 2.72 4.76 2.584.816 4.373-1.612 4.869-3.042a2.87 2.87 0 0 0 .117-.433c.065-.369.191-.528.338-.561.264-.059.552.219.722.558s.213.624.257.981c.301 2.397-.282 5.975-4.491 6.501-4.835.604-8.184-2.886-8.285-4.473l-2.48-2.176 6.232-2.115z" fill="url(#A)"/><path d="M36.623 17.184a.71.71 0 0 1 .871-.5h0a.71.71 0 0 1 .5.871L34.431 30.72a.66.66 0 0 1-.812.466l-.093-.025a.66.66 0 0 1-.466-.812l3.563-13.165z" fill="#000d1d"/><path fill-rule="evenodd" d="M24.721 25.17A12.73 12.73 0 0 0 19.263.94 12.73 12.73 0 0 0 6.534 13.668c0 3.397 1.331 6.483 3.5 8.766-.009.951-.286 2.35-1.248 3.186-1.179 1.024-3.973 2.018-6.131-1.397-.09-.125-.179-.274-.269-.426-.475-.795-.992-1.661-1.826.581-.993 2.67.233 5.097 2.484 5.899.899.32 1.836.55 2.783.625.136 1.728 1.992 3.45 3.359 3.834 2.613.735 6.894-.859 9.165-5.1l.747-1.394.747 1.394c2.271 4.241 6.552 5.835 9.165 5.1 1.435-.403 3.408-2.279 3.367-4.089s-1.079-1.099-1.593-.518c-2.529 1.431-3.782.551-4.796-.387-.811-.751-1.086-1.982-1.122-2.504l-.142-2.068zm-11.349 1.44c-1.458 2.317-3.129 3.534-4.85 4.035 1.809.635 2.832-.113 3.685-.903.812-.751 1.086-1.982 1.122-2.504l.043-.628z" fill="url(#B)"/><ellipse cx="14.352" cy="11.54" rx="1.932" ry="2.374" fill="#000"/><circle cx="14.892" cy="10.768" fill="#fff" r=".621"/><ellipse cx="23.626" cy="11.54" rx="1.932" ry="2.374" fill="#000"/><circle cx="24.166" cy="10.768" fill="#fff" r=".621"/><path d="M17.542 17.005c1.212.961 1.899.979 3.027 0" stroke="#000" stroke-width=".31" stroke-linecap="round"/><path d="M125.472 5.251l-1.224-.127c-.232-.024-.458.021-.671.132a1.34 1.34 0 0 0-.495.48l-.696 1.136c-.144.236-.434.312-.646.171-.154-.102-.226-.29-.199-.476l.187-1.319c.035-.251.005-.491-.081-.698s-.234-.387-.428-.516l-1.025-.683c-.213-.141-.268-.447-.124-.683.104-.17.284-.258.456-.24l1.225.127c.234.025.46-.021.659-.125a1.34 1.34 0 0 0 .507-.487l.696-1.136c.144-.236.434-.312.646-.171.154.102.226.29.199.476l-.187 1.319c-.035.25-.005.489.087.711a1.15 1.15 0 0 0 .422.503l1.025.683c.212.141.268.447.124.683-.104.17-.284.258-.457.239z" fill="#e6169c"/><path d="M54.243 26.058c2.159 0 4.984-1.231 4.984-5.186v-7.608h-1.949v1.796c-.505-1.231-1.562-1.998-3.257-1.998-2.704 0-4.601 2.119-4.601 4.782s1.897 4.762 4.601 4.762c1.897 0 2.773-.908 3.197-2.018v.323c0 2.906-1.158 3.329-3.096 3.459-1.295.087-2.3-.444-3.087-1.231l-.646 1.465c.928.928 2.28 1.453 3.854 1.453zm.081-5.299c-1.593-.012-2.848-1.321-2.854-2.914-.006-1.598 1.255-2.923 2.854-2.934 1.576-.011 2.834 1.238 2.894 2.813.062 1.637-1.256 3.048-2.894 3.035z" fill="url(#C)"/><path d="M66.547 23.293c1.352 0 2.664-.464 3.713-1.291l-.666-1.606c-.807.666-1.917 1.049-3.027 1.049-1.816 0-2.854-.755-3.096-2.712h7.535c0-.02.04-.323.04-.605 0-2.805-2.078-5.065-4.702-5.065-2.805 0-4.944 2.28-4.944 5.126 0 3.108 2.361 5.105 5.146 5.105zm-3.076-6.207c.222-1.836 1.834-2.176 2.793-2.176s2.632.36 2.793 2.176h-5.586z" fill="url(#C)"/><path d="M73.235 23.091h2.01v-5.529c0-1.635 1.446-2.623 2.511-2.531.837.073 1.966.493 1.966 2.309v5.751h2.01v-5.953c0-2.583-1.09-4.076-3.552-4.076-1.453 0-2.724.686-3.41 1.877v-1.675h-1.534v9.827z" fill="url(#C)"/><path d="M88.915 23.293c1.473 0 2.805-.545 3.753-1.453l-.888-1.626c-.686.686-1.63 1.199-2.805 1.11-1.738-.132-3.171-1.393-3.177-3.136-.005-1.738 1.402-3.044 3.136-3.156a3.35 3.35 0 0 1 2.523.908l.969-1.566c-.928-.827-2.159-1.312-3.511-1.312-2.886 0-5.166 2.26-5.166 5.126s2.28 5.105 5.166 5.105z" fill="url(#C)"/><path d="M94.498 23.091h2.01V18.43c0-1.687 1.017-3.217 3.318-3.217v-2.151c-1.957 0-2.753.989-3.318 2.28v-2.078h-2.01v9.827z" fill="url(#C)"/><path d="M105.633 23.293c1.574 0 2.741-.601 3.217-1.917v1.715h2.01v-9.827h-2.01v1.715c-.476-1.092-1.643-1.917-3.217-1.917-2.724 0-4.641 2.24-4.641 5.126 0 2.845 1.917 5.105 4.641 5.105zm.343-1.969c-1.677.017-2.929-1.459-2.934-3.136-.005-1.683 1.251-3.174 2.934-3.156 1.667.017 2.404 1.489 2.398 3.156-.005 1.661-.736 3.119-2.398 3.136z" fill="url(#C)"/><path d="M113.658 23.091h2.01v-8.08h2.652v-1.747h-2.652v-.585c0-1.534.712-1.461.957-1.441s1.332.363 1.533.484l.505-1.646c-.484-.303-1.393-.666-2.361-.666-1.352 0-2.644.666-2.644 3.108v.747h-1.594v1.747h1.594v8.08z" fill="url(#C)"/><path d="M123.071 23.293c1.07 0 1.877-.464 2.26-.726l-.504-1.666-1.615.545s-.896.093-.896-1.259v-5.174h2.874v-1.747h-2.874v-2.401l-2.009.282v2.119h-1.474v1.747h1.474v5.134c0 2.3 1.029 3.148 2.764 3.148z" fill="url(#C)"/></g><defs><linearGradient id="A" x1="34.85" y1="32.06" x2="20.171" y2="11.334" gradientUnits="userSpaceOnUse"><stop offset=".126" stop-color="#ff4a9f"/><stop offset="1" stop-color="#ff80bf"/></linearGradient><linearGradient id="B" x1="16.866" y1="28.778" x2="18.497" y2=".966" gradientUnits="userSpaceOnUse"><stop stop-color="#ff499e"/><stop offset="1" stop-color="#ffbbe1"/></linearGradient><linearGradient id="C" x1="50.6" y1="17.734" x2="128.689" y2="6.81" gradientUnits="userSpaceOnUse"><stop stop-color="#6c79f1"/><stop offset="1" stop-color="#f30b92"/></linearGradient><clipPath id="D"><path fill="#fff" d="M0 0h128v36H0z"/></clipPath></defs></svg>