<?xml version="1.0" encoding="UTF-8"?>
<svg version="1.1" viewBox="0 0 2048 374" width="1280" height="1280" xmlns="http://www.w3.org/2000/svg">
<path transform="translate(1884)" d="m0 0h55l35 4 41 7 14 5 10 7 7 8 2 4v30l-7 16-8 14-10 14-9 11-12 14-16 17-14 14-15 11-15 8-14 4h-18l-10-4-9-6-9-9-9-14-13-25-10-19-8-17-8-24-3-14-1-8v-10l3-14 5-9 9-8 13-4z" fill="#00A44D"/>
<path transform="translate(1523,129)" d="m0 0h7l4 5 3 8 1 7v38l-4 36-4 28v11l5-3 8-11 10-16 17-25 10-14 9-12 8-10 11-13 12-12 13-10 9-5h6l2 3v233l-3 5-4-2-4-13-19-144-3-10-3-4-7 1-7 8-8 14-18 35-17 36-15 37-10 30-4 6-2 2-5-1-6-10-5-16-5-32-4-40-3-56-3-9-4-3-6 2-5 5-8 10-17 26-15 25-14 25-11 21-14 31-7 17-6 9-3-1-2-8 2-20 6-26 7-23 12-29 13-25 13-21 14-19 9-11 9-10 7-8 18-18 8-7 17-14z" fill="#FED63A"/>
<path transform="translate(1272,125)" d="m0 0h9l8 3 3 4 1 3 1 217-2 14-2 4-3 1-6-5-14-26-12-18-10-14-10-13-11-14-24-28-9-10-7-8-14-15-9-9-4-2h-6l-3 3-3 15-16 113-4 25-4 9h-4l-4-10-1-40-1-109v-85l3-4 8 1 14 8 13 10 11 10 8 7 19 19 7 8 12 13 9 11 9 10 11 14 10 12 13 17 6 4v-9l-12-79-7-43 1-8 4-4 4-1z" fill="#FED63A"/>
<path transform="translate(751,124)" d="m0 0h14l12 4 11 7 11 9 8 8 11 14 12 18 12 22 10 23 8 24 5 21 2 14v27l-4 16-5 10-7 9-13 9-16 6-15 3-25 2h-47l-27-2-18-4-15-6-12-9-9-12-5-14-2-11v-21l3-20 6-23 8-22 11-24 14-24 14-19 12-13 10-9 14-9zm3 29-12 7-15 15-10 13-11 18-12 23-10 26-6 22-2 14v21l3 10 4 6 5 4 8 4 12 3 19 2h61l19-2 12-3 11-6 6-9 2-6 1-17-2-17-5-21-7-21-8-18-8-16-11-18-11-14-13-13-10-6-2-1z" fill="#00A44D"/>
<path transform="translate(311,124)" d="m0 0h13l12 4 10 6 10 8 12 12 13 17 13 21 12 24 10 26 6 21 4 22 1 12v11l-2 14-4 12-7 12-10 9-16 8-15 4-15 2-17 1h-47l-26-2-16-3-13-5-11-6-11-11-7-14-3-12-1-8v-14l2-17 5-22 9-27 9-20 11-21 12-18 11-14 12-13 13-10 16-8zm2 29-10 6-12 11-8 9-10 14-9 15-8 15-8 19-8 24-4 19-1 7v19l4 13 5 6 12 6 11 3 19 2h62l18-2 15-4 9-6 5-7 3-12v-16l-3-20-7-25-10-25-12-23-9-14-10-13-8-9-10-8-8-4z" fill="#00A44D"/>
<path transform="translate(1091,125)" d="m0 0 4 1 2 3v38l-4 194-1 8-1 1-8-1-10-8-14-14-7-8-16-17-9-9-7-8-7-7-7-8-10-10-7-8-2-1h-8l-6 4-8 13-15 29-12 22-12 23-5 7-4 1-2-2-1-4 1-17 5-23 7-20 14-29 14-22 10-14 13-16 10-11 7-8 22-22 8-7 14-12 14-11 13-10 18-13zm-45 76-25 15-7 7-4 7 1 6 30 48 16 26 14 22 5 7h5v-11l-15-87-5-27-4-9-5-4z" fill="#FED63A"/>
<path transform="translate(578,154)" d="m0 0h13l10 4 5 6 2 6v10l-3 5-7 3-23 1-9 5-10 9-7 8-10 11-11 14-10 13-12 19-8 16-6 18v18l4 9 4 5 10 6 17 6 15 4 14 2 22 1 12-3 9-6 4-6v-12l-5-10-4-5h-10l-12 5-14 9-12 9-6 1-1-1 1-8 5-12 7-11 12-14 13-11 10-5 4-1h10l6 3 5 4 6 10 5 21 2 13v26l-3 10-5 7-6 3-4 1h-145l-8-3-8-7-3-6-1-5v-10l4-16 7-16 16-31 14-24 12-18 14-19 11-13 9-10 14-14 14-11 15-10z" fill="#00A44D"/>
<path transform="translate(138,154)" d="m0 0h13l9 4 5 5 3 8v9l-5 6-5 2-23 1-9 5-10 9-11 12-9 11-10 12-12 17-8 13-8 16-4 10-3 14 1 13 5 10 7 6 16 7 17 5 19 3 21 1 10-2 10-5 5-6 1-3v-10l-7-14-2-2h-10l-13 5-16 11-8 6-4 2-4-1 1-9 8-16 8-11 11-12 10-8 10-5 4-1h9l8 4 7 7 4 10 5 24 1 8v23l-3 11-8 9-7 2h-145l-9-3-5-4-4-6-2-7v-11l4-17 9-20 24-44 20-30 13-17 12-14 20-20 17-13 13-8z" fill="#00A44D"/>
<path transform="translate(1707,125)" d="m0 0h28l24 5 23 8 22 10 14 8 10 9 3 6-2 2h-7l-61-14-18-3-16-1-3 10-7 31-1 6v17l3 7 5 3 20 5 16 7 7 4 1 3-2 2-4 1h-38l-7 3-2 4 1 27 3 49 4 5 8 3h21l25-5 21-7 17-6 12-3h7l1 4-6 7-15 10-17 8-22 7-21 5-26 4-21 2h-23l-13-3-6-5-1-7 28-206 2-9 5-8 5-4z" fill="#FED63A"/>
<path transform="translate(1325,171)" d="m0 0h31l5 5v18l-8 154-1 13-4 6-4 1h-8l-5-3-2-3-2-28-7-135v-23z" fill="#FED63A"/>
<path transform="translate(316,219)" d="m0 0 7 1 6 4 7 7 8 13 6 16 2 11-1 10-4 7-6 4-9 2h-29l-11-3-5-5-3-5-1-9 3-15 7-16 9-13 8-7z" fill="#00A44D"/>
<path transform="translate(756,219)" d="m0 0 7 1 6 4 5 5 7 9 7 15 4 16v9l-3 7-4 5-8 3-5 1h-29l-10-3-7-6-2-5v-15l6-18 8-14 8-9z" fill="#00A44D"/>
<path transform="translate(2024,41)" d="m0 0 4 1 1 3-7 21-8 16-7 12-9 12-11 12-10 9-13 8-11 5-6 1-2-2 1-8 3-14 1-13-1-26-4-26-1-9 4 1 6 8 5 13 3 13 2 20v20l14-8 13-13 11-16 12-21 8-16z" fill="#FEFEFE"/>
<path transform="translate(1883,35)" d="m0 0h24l15 4 10 5 7 7 1 6-2 1-11-6-11-4-6 1-4 3-1 77-3 10-2 3-4-1-2-14-1-37-1-17-3-18-3-6-1-1-9 1-10 4-12 8-4-1 5-9 7-7 14-7z" fill="#FEFEFE"/>
<path transform="translate(1320,125)" d="m0 0h40l5 4 1 2-1 13-2 13-4 5-2 1h-34l-5-5-3-19v-8z" fill="#FED63A"/>
</svg>
