<?xml version="1.0" encoding="UTF-8"?>
<svg version="1.1" viewBox="0 0 1600 500" width="1280" height="1280" xmlns="http://www.w3.org/2000/svg">
<path transform="translate(161)" d="m0 0h1384l16 6 11 6 12 11 7 11 5 11 3 12 1 14-7 34-19 90-15 70-22 103-9 42-6 21-8 16-9 12-9 10-9 8-14 9-17 8-20 6h-1379l-20-7-10-6-10-9-7-9-5-10-5-17v-20l9-41 23-108 19-89 21-98 5-17 8-16 9-12 9-10 10-9 15-10 16-7z" fill="#0F3B8D"/>
<path transform="translate(161)" d="m0 0h384l16 8 11 7 6 5 9 13 6 13 3 14v13l-4 22-20 93-38 178-9 42-6 21-8 17-10 14-15 15-10 7-16 9-23 9h-380l-20-7-10-6-10-9-7-9-5-10-5-17v-20l9-41 23-108 19-89 21-98 5-17 8-16 9-12 9-10 10-9 15-10 16-7z" fill="#FEA412"/>
<path transform="translate(1023,99)" d="m0 0h78l13 3 9 5 6 5 5 8 3 9 1 7-1 17-18 86-13 61-10 45-6 16-6 11-7 9-8 7-12 7-13 4-15 2h-70l-1-5 14-65 22-103 20-94 7-32z" fill="#FDFDFD"/>
<path transform="translate(362,98)" d="m0 0h44l19 1 14 3 10 5 8 9 4 10 1 6v21l-9 45-24 113-7 31-6 18-6 11-8 10-9 8-16 8-18 4h-75l-1-2 11-51 26-122 20-93 7-33 1-1z" fill="#FDFDFD"/>
<path transform="translate(910,94)" d="m0 0h26l16 4 11 6 7 8 4 8 2 9v14l-3 18-21 99-15 70-6 24-6 15-6 10-9 10-10 7-11 5-16 4-8 1h-16l-17-3-12-6-6-5-5-8-3-9-1-6v-13l3-18 17-80 19-89 6-24 6-15 8-12 10-10 13-8 17-5z" fill="#FDFCFC"/>
<path transform="translate(69,144)" d="m0 0h3l1 7 2 3 2 16 1 7h2l4 5 4 4 2 4v4l3-1 5 3 4 8 7 24 4 5 3 3 4 11 2 8v10l-1 4 1 16 2 5v12l-3 13-3 16-2 9v14l-3 12-1 14 2 6 4 1 1 4-2 9 44 1 1 1 8-2h6v13l8 4 2 10 1 9-6-1v13l-6 1 1 9 6 10 5 6 4 11v2l5 2 5 5 2 6h-146l-20-7-10-6-10-9-7-9-5-10-5-17v-20l9-41 23-108 19-89 3-11 4-8 2-9 8-10z" fill="#FD7A17"/>
<path transform="translate(1219,98)" d="m0 0 58 1 1 4-12 180-7 107-1 10-1 1h-43l-1-1 2-25 3-34h-45l-14 41-6 17-2 2h-42l-1-4 13-35 23-64 21-57 16-45 13-36 17-47 6-13z" fill="#FDFDFD"/>
<path transform="translate(183,98)" d="m0 0h39l3 1-2 12-18 86-17 78-1 2h38l1-8 8-36 24-112 5-22 1-1h31l12 1-2 12-24 113-16 75-19 88-3 13-1 1h-42l-1-1 1-10 9-40 6-28h-37l-13 61-4 17-1 1h-41l-2-1 1-9 13-60 22-103 23-107 4-20z" fill="#FDFDFD"/>
<path transform="translate(1328,99)" d="m0 0h47v19l-2 111-1 21h2l1-5 13-33 15-37 19-47 11-26 2-3h45v4l-18 39-15 33-17 37-11 24-16 35-15 33-7 17-6 24-11 52-2 4h-42l-1-1 1-9 14-67v-33l-6-173z" fill="#FDFDFD"/>
<path transform="translate(710,99)" d="m0 0h125l-1 10-7 32-1 1-40 1-6 27-15 71-24 112-10 46-2 2h-41l-2-1 5-25 28-132 11-51 10-47 1-3h-41l4-20 5-21z" fill="#FDFDFD"/>
<path transform="translate(910,137)" d="m0 0h8l7 3 4 5 1 2v8l-21 99-19 88-4 11-8 7-5 2h-12l-6-3-3-3-1-3v-10l16-74 19-89 6-27 5-9 5-4z" fill="#0F3B8D"/>
<path transform="translate(383,142)" d="m0 0h18l10 2 5 5 1 2v8l-10 49-21 98-7 32-4 10-4 5-8 4h-26l1-9 26-122 17-80z" fill="#FEA512"/>
<path transform="translate(1057,142)" d="m0 0h25l6 3 4 8-2 13-17 81-19 89-4 11-6 7-7 3h-25l1-10 15-71 24-112z" fill="#0F3B8D"/>
<path transform="translate(1232,163)" d="m0 0h1v14l-9 104-2 16h-34l2-9 30-89z" fill="#0F3B8D"/>
<path transform="translate(116,397)" d="m0 0 1 3 43 1-2 1-2 4-9 3-6 1 3 4-7 1-1-3-16-1-6-4-2-3 1-5h2z" fill="#FEA412"/>
<path transform="translate(54,174)" d="m0 0h1v10l-3 9-3 11-2 2 2-12 4-19z" fill="#FDA719"/>
<path transform="translate(73,134)" d="m0 0h2l1 5-4 4-1-1v-6z" fill="#FE7A17"/>
</svg>
