<?xml version="1.0" encoding="UTF-8"?>
<svg version="1.1" viewBox="0 0 2048 761" width="1280" height="1280" xmlns="http://www.w3.org/2000/svg">
<path transform="translate(0)" d="m0 0h2048v761h-2048z" fill="#FCFCFD"/>
<path transform="translate(276,211)" d="m0 0h11l43 7 15 4 15 5 26 12 23 11 20 11 9 9 5 7v2h2v3h2l5 9 24 36 9 15 8 20 17 52 2 12 1 20h49l2 2v48l-4 6-46 46-4 6-9 4-20 8-35 11-14 4-12 1-78 1-12-1-13-5-17-9-21-13-4-5-6-11-11-17-6-10-10-16-14-22-11-17-6-10 1-6 13-26 7-11 5-10 2-1h27l10 1-1-46v-127z" fill="#4774F9"/>
<path transform="translate(710,209)" d="m0 0h9l14 5 11 8 9 9 11 14 13 18 16 23 11 16 14 20 12 17 14 20 12 17 14 20 10 14 8 10 4 3v-45l1-163 1-6 9 1 13 4 10 6 10 10 6 10 3 10v299h-14l-16-8-12-11-11-13-20-28-16-23-14-20-13-19-13-18-11-16-12-17-16-23-13-18-1-1-1 66-1 141-1 8h-11l-10-4-10-5-10-10-5-8-4-12z" fill="#2D58C4"/>
<path transform="translate(276,211)" d="m0 0h11l43 7-4 2 38 13 10 4 12 6 10 6 5 4 14 9 5 5-1 4-10 6-19 9-7 4 2 5 7 10 13 24 10 19 12 25 2 5-1 4-9 7-8 6-10 8-14 8-13 8-21 10-6 4-9 4-4 6-1 4-1 24v103l-4 1 11 1h93l19-5 35-11 23-9 3-1-2 4-9 4-20 8-35 11-14 4-12 1-78 1-12-1-13-5-17-9-21-13-4-5-6-11-11-17-6-10-10-16-14-22-11-17-6-10 1-6 13-26 7-11 5-10 2-1h27l10 1-1-46v-127z" fill="#5499F1"/>
<path transform="translate(1715,321)" d="m0 0h35l20 4 15 6 11 6 11 9 8 9 10 17 6 15 3 10 3 16v28l-6 10-6 4-5 2-7 1h-131l2 12 7 13 8 10 10 6 7 3 6 1 99 1 1 2-7 10-12 12-12 8-13 6-20 6-14 2h-21l-20-3-11-3-12-5-12-7-13-11-9-12-7-14-4-10-5-19-2-17v-25l2-16 3-17 5-14 9-17 7-9 5-6 12-9 16-8 14-4z" fill="#2E59C5"/>
<path transform="translate(1209,321)" d="m0 0h25l17 4 16 8 10 9 6 7 10 19 4 14 2 17v150h-10l-15-5-9-6-8-8-6-12-3-9-1-102-1-10-3-8-5-8-5-5-7-5-9-3-8-1h-20l-12 4-8 6-8 9-4 8-2 10-1 145h-11l-14-5-11-8-8-10-5-10-2-10v-177l4-2h47l1 1v23l7-6 4-5 12-9 12-6 10-3z" fill="#2E59C5"/>
<path transform="translate(1471,262)" d="m0 0h51v65h79v11l-6 16-6 8-8 8-9 5-17 4h-33l1 93 3 11 5 8 7 7 5 3 11 2 45 1 2 1v11l-8 16-10 10-13 6-7 2h-17l-15-3-9-3-15-8-11-9-10-11-8-14-6-18-1-5-1-99-25-1v-51l3-1h23z" fill="#2D58C4"/>
<path transform="translate(1354,327)" d="m0 0h49l1 1v221h-10l-19-7-12-11-6-9-4-13v-181z" fill="#2E59C5"/>
<path transform="translate(1e3 327)" d="m0 0h49v222h-11l-12-4-9-6-7-6-7-10-3-7-2-10v-178z" fill="#2E59C5"/>
<path transform="translate(562,451)" d="m0 0h1l1 45-4 6-46 46-1 2-14 6-20 7-31 10-16 4h-93v-1l39-1 4-2 5-5h3v-2l5-1 1-4 6-1 2-4 7-5 7-3 7 5 7 3 1-1 2-30 1-7 4-6 5-3h2l1-4 17-10 7-5 16-7 10-2 7-1v2l8 4h8l8-4 9-8 8-7 8-8 5-6z" fill="#4F5EC7"/>
<path transform="translate(277,341)" d="m0 0 4 3 6 2 7 8 8 7 5 4 11 8 9 2 1 14v65l-1 29-1 14-3 8-5-1-8-5-16-6-6-8-11-18-22-33-4-1-1 1h-6l-2-3v-3l6-3-1-5-1-7h-2l-4-11-3-2v-6l2-1h27l10 1z" fill="#4774FA"/>
<path transform="translate(276,211)" d="m0 0h11l43 7-4 2 38 13 10 4 12 6 10 6 5 4 14 9 5 5-1 4-10 6-19 9-7 4-2 2-6-8-11-10-13-10v-2l-4-2-17-13-19-13-10-7-14-8-4-3 2 18 8 31 17 50 11 30 3 9 2 9 1 2v10l-9-1-11-8-8-7-6-5-7-8-7-2-1-1-1 48h-1l-1-43v-127z" fill="#5893FC"/>
<path transform="translate(497,383)" d="m0 0 3 1 11 34 2 23v5h49l2 2v44h-1l-1-40-6 5-7 8-9 9-10 8-7 4-2 1h-9l-7-5v-2l-11 3-9 2-14 7-13 8-10 6-1 3-7 4-3 5-1 7-1 18h-1v-31l1-26v-18l2-24 6-8 5-3 7-3 6-3 8-2 14-6 5-4 2-4 2-7v-10l3-2z" fill="#4061E6"/>
<path transform="translate(282,215)" d="m0 0 14 8 14 9 28 20 13 10v2l4 2 17 14 7 7 3 5-2 4-7 2-2 4-17 29-7 11-3 3-10 1-5 4-2 4v8l-2-3-15-42-12-34-8-25-6-24-2-14z" fill="#97D0FF"/>
<path transform="translate(382,292)" d="m0 0 5 5 10 17 14 26 7 14v7h-2l-2 5-12 5-8 5-9 6-11 5-38 16-3 5-1 9-1 22-2 2-2-52-1-24-2-5 1-3 1 1 1-6 7-7 10-1 4-5 16-27 7-11 4-4 6-3z" fill="#64A4FC"/>
<path transform="translate(276,211)" d="m0 0h11l43 7-4 2 38 13 10 4 12 6 10 6 5 4 14 9 5 5-1 4-10 6-19 9-7 4-2 2-6-8-11-10-13-10v-2l-4-2-17-13-19-13-10-7-14-8-4-3-2 4-5-2z" fill="#5690FB"/>
<path transform="translate(1722,366)" d="m0 0h17l12 2 12 6 10 9 6 10 3 7 2 5v7h-102v-7l4-11 8-11 3-4h2v-2l10-7z" fill="#FBFCFD"/>
<path transform="translate(236,396)" d="m0 0 1 4 4 2 3 11h2l3 9-1 4-6 2 2 6 10-2 7 9 14 22v3h-2-3-1l-1 12-2 7h-2l-3 10-2 7v8l3 14 4 7h-2l-10-15-8-14-22-34-12-19-1-5 11-23 9-16 4-6z" fill="#5690FB"/>
<path transform="translate(418,356)" d="m0 0 3 4 8 18-1 4-9 7-8 6-10 8-14 8-13 8-21 10-6 4-9 4-4 6-1 4-1 24-1 5h-1v-30l1-29 1-9 4-6 38-16 14-7 16-10 10-3 2-5h2z" fill="#5590FB"/>
<path transform="translate(1017,233)" d="m0 0h13l8 3 7 6 6 10 2 6v8l-4 9-9 10-8 4-3 1h-11l-10-4-7-7-6-12v-12l6-12 7-6z" fill="#2D58C4"/>
<path transform="translate(1374,233)" d="m0 0h10l7 2 10 9 5 10 1 4v10l-4 8-6 7-9 6-3 1h-14l-10-5-7-8-4-10v-12l4-10 7-7 5-3z" fill="#2D58C4"/>
<path transform="translate(382,292)" d="m0 0 5 5 10 17 2 4 1 7-1 3h-2l-2 5-9 2-1 3-15 9-5 4-19 11-9 6-9 3-4-11 1-3 1 1 1-6 7-7 10-1 4-5 16-27 7-11 4-4 6-3z" fill="#79BAFE"/>
<path transform="translate(511,426)" d="m0 0h1l1 20h49l2 2v44h-1l-1-40-6 5-7 8-9 9-10 8-4 3-5-2-3-8-6-23-1-10-6-2h-10l-8 3v-2l3-3h2v-3l4-3 2 1 1 1 3-1 6 2 2 1z" fill="#558FFB"/>
<path transform="translate(776,349)" d="m0 0 5 5 2-1 4 4v2h2l7 11 9 12 1 4h-2l3 4 3 2 1 2 2 1 1 3 2 1v3h2l-1 5 3 1 3 5v2h2l2 2 5 3 3 9 2 1v3l9 8 1 3 2 1 1 5 2 5 8 7 6 10 9 11 1 3h2l6 9 8 11 9 10 2 1v2h2l7 8 5 4v2h2l6 7 2 1v2h2l1 4-5-1-10-5-12-11-11-13-20-28-16-23-14-20-13-19-13-18-11-16-12-17-16-23z" fill="#1C48D3"/>
<path transform="translate(1374,233)" d="m0 0h10l7 2 10 9 5 10 1 4v10l-4 8-6 7-9 6-3 1h-14l-10-5-7-8-4-10v-12l4-10 7-7 5-3zm0 9-8 3-7 7-1 3v12l4 9 5 4 8 3h12l6-3 5-8 1-3v-12l-6-10-7-5z" fill="#1C47D1"/>
<path transform="translate(1017,233)" d="m0 0h13l8 3 7 6 6 10 2 6v8l-4 9-9 10-8 4-3 1h-11l-10-4-7-7-6-12v-12l6-12 7-6zm1 9-7 3-7 6-3 7v7l5 10h2l2 4 7 3 5 1h8l8-2 6-10 1-3v-9l-4-9-7-7-3-1z" fill="#1C48D2"/>
<path transform="translate(417,548)" d="m0 0 8 5 7 3 2-1v20l-2 2h-93v-1l39-1 4-2 5-5h3v-2l5-1 1-4 6-1 2-4 7-5z" fill="#4060E4"/>
<path transform="translate(562,451)" d="m0 0h1l1 45-4 6-18 18h-2l-2-9 3-7-3-6 1-4 3-1 2-4 2-5-1-7-2-1v-2h-2l2-4 11-11 5-6z" fill="#2D58C4"/>
<path transform="translate(273,544)" d="m0 0 7 6 14 10 16 8 11 5 7 2 11 1h93l19-5 35-11 23-9 3-1-2 4-9 4-20 8-35 11-14 4-12 1-78 1-12-1-13-5-17-9-21-13-4-5z" fill="#74B2FD"/>
<path transform="translate(227,437)" d="m0 0 5 3h4l3 2 3 16v5l-1 3 1 9 6 19 4 11 2 7h-2l-10-16-14-22-11-17-5-8 1-6z" fill="#4775FA"/>
<path transform="translate(343,248)" d="m0 0 11 2 14 7 11 7 14 7 6 4 1 6-17 9-2 2-6-8-11-10-13-10v-2l-4-2-4-4h2z" fill="#559BF2"/>
<path transform="translate(236,396)" d="m0 0 1 4 4 2 3 11h2l3 9-1 4-11 6-9 4-3 3-9 4h-3l-2 4 1-6 13-26 7-11z" fill="#7ABBFE"/>
<path transform="translate(418,356)" d="m0 0 3 4 1 6-6 5-10 5-22 12-17 9-30 12-5 4 1-7 5-5 27-11 17-8 7-4 12-7 9-4 4-1 2-5h2z" fill="#559AF2"/>
<path transform="translate(1706,323)" d="m0 0h10l-4 2-18 5-8 5-7 3-4 1v2l-5 2-1 3-7 3v3h-2l-2 7h-2l-2 5-6 10-4 7-6 12-4 2v-7l6-15 7-13 7-9 5-6 12-9 16-8 14-4z" fill="#1D48D2"/>
<path transform="translate(776,349)" d="m0 0 5 5 2-1 4 4v2h2l7 11 9 12 1 4h-2l3 4 3 2 1 2 2 1 1 3 2 1v3h2l-1 5 3 1 3 5v2h2l2 2 5 3 3 9 2 1v3l9 8 1 3 2 1 1 5 1 3-3 2-10-15-24-34-14-20-16-23-8-11z" fill="#1E4AD4"/>
<path transform="translate(498,460)" d="m0 0h7l2 1v6l-4 1 1 2-7 3v3l-10 2 1-3-4 1-1 2-9 2-3 1-3-2v-3-2l5-2v-4l10-5z" fill="#4F5EC7"/>
<path transform="translate(359,263)" d="m0 0 6 1 14 6 11 7 4 2 1 3-3 3-9 5-2 2-6-8-11-10-11-9v-1z" fill="#65A5FD"/>
<path transform="translate(1640,493)" d="m0 0 4 5 5 10 2 3 3-1 7 8 10 6v3h2v2l9 3 4 1 3 3 18 7 5 3-3 1-17-3-12-5-12-7-13-11-9-12-6-11z" fill="#1D49D2"/>
<path transform="translate(237,397)" d="m0 0h6l6 4 5 3 12 1v4l-9 10-7 5-3-4-1-7h-2l-4-11-3-2z" fill="#5691FA"/>
<path transform="translate(1798,341)" d="m0 0 4 1 8 7 9 12 8 16 5 13v8l-2-3-6-15-1-3h-2l-8-12-7-7v-2l-3-1-3-5-1-7z" fill="#204BD2"/>
<path transform="translate(515,446)" d="m0 0h47l2 2v44h-1l-1-40-6 5-5 6h-2v-6h-2l-3-3-7-4-1-2-21-1z" fill="#6AA9FD"/>
<path transform="translate(239,405)" d="m0 0 3 1 2 7h2l3 9-1 4-11 6-10 4 1-5 6-10 1-10z" fill="#97D0FF"/>
<path transform="translate(893,215)" d="m0 0h1v211l-4-1-3-3 1-2 4 3v-45z" fill="#629FFC"/>
<path transform="translate(1477,495)" d="m0 0 2 2 6 12 7 10 5 3 9 7 10 6 3 1v2l5 1 11 5 1 2h-9l-17-8-13-10-7-7-9-13-4-9z" fill="#214ED5"/>
<path transform="translate(326,483)" d="m0 0 2 2-1 27-2 3-4-1-10-7-9-7-9-6 1-2 16 6 10 6h3l2-7z" fill="#5690FC"/>
<path transform="translate(761,332)" d="m0 0h1v68l-1 141-1 8h-11v-1h5l1-3h3l1-5 1-141z" fill="#6CAAFD"/>
<path transform="translate(1814,505)" d="m0 0h8l-5 9-14 14-12 8-13 6-13 4h-8l2-2 20-7 12-6 7-4 3-1v-2l8-6 6-8 1-4z" fill="#1F4BD6"/>
<path transform="translate(468,317)" d="m0 0 5 5 11 18v4l-8 2-7-7-1-6 1-8z" fill="#4164E7"/>
<path transform="translate(943,417)" d="m0 0h1v132h-13l-3-2 6 1 1-3 7-3z" fill="#4A5FD2"/>
<path transform="translate(227,415)" d="m0 0h1l-1 10-3 10 3 3-11 5h-3l-2 4 1-6 12-24z" fill="#69A8FC"/>
<path transform="translate(529,447)" d="m0 0h7l1 3 10 5v2h2l1 7-9 9h-3l-1-3 3-8h2l-2-6-3-3-3-1-1-4z" fill="#5498F2"/>
<path transform="translate(457,358)" d="m0 0v3l-1 2 2 1-16 16-8 10-2-3-1-6 6-1 3-7 6-6h2l5-6z" fill="#4061E6"/>
<path transform="translate(1048,415)" d="m0 0h1v134h-11l4-2 2-2h3z" fill="#4D5ECA"/>
<path transform="translate(510,550)" d="m0 0h2l-2 4-9 4-20 8-15 5-4-1h3l2-4 27-9 15-6z" fill="#74B1FD"/>
<path transform="translate(1560,504)" d="m0 0h39l2 1v11l-2-3-3 1-4-1-3-2h-2l-2-5 4 1-1-1-28-1z" fill="#506FD8"/>
<path transform="translate(513,453)" d="m0 0h2l5 13 4 7 3 7 3 2-4 3-5-2-3-8-5-20z" fill="#4673F9"/>
<path transform="translate(511,426)" d="m0 0h1v16l-6-1-1-1h-10l-8 3v-2l3-3h2v-3l4-3 2 1 1 1 3-1 6 2 2 1z" fill="#4A78F9"/>
<path transform="translate(242,406)" d="m0 0 3 3 2 3h9l7-1-2 4-9 8-3 1-3-6v-5h-2z" fill="#67A7FD"/>
<path transform="translate(715,520)" d="m0 0 12 12v2l4 2 13 8 2 2-7-1-10-5-10-10-4-6z" fill="#1F4AD2"/>
<path transform="translate(562,458)" d="m0 0h1v18l-7 1-3-4 1-4 4-5h2z" fill="#505EC7"/>
<path transform="translate(1253,520)" d="m0 0 4 4v2h2v3l4 2 7 6 15 8v1l-9-1-10-6-9-9-4-7z" fill="#214DD3"/>
<path transform="translate(1814,505)" d="m0 0h8l-5 9-14 14-7 5h-2l2-4 3-3h2v-2l8-6 6-8 1-4z" fill="#234ED3"/>
<path transform="translate(1109,521)" d="m0 0 4 3 1 3 2 1 2 4 12 8 10 5v1h-6l-10-5-8-7-6-8z" fill="#2451D4"/>
<path transform="translate(1593,352)" d="m0 0 1 4-9 10-7 6-10 4-4-1 5-2 1-2 7-3 12-10 3-5z" fill="#234FD4"/>
<path transform="translate(1359,522)" d="m0 0 10 10 9 7 11 6-4 1-10-4-12-11-4-6z" fill="#214CD2"/>
<path transform="translate(435,563)" d="m0 0 5 1 4 4 1 4-1 2-7 2-4-1 1-2z" fill="#3058C4"/>
<path transform="translate(560,447)" d="m0 0 4 1v44h-1l-1-40-6 5-3 3 1-5 3-3h2z" fill="#63A1FC"/>
<path transform="translate(1298,501)" d="m0 0h1v48h-10l3-1 1-3 3-1 1-2z" fill="#5893FC"/>
<path transform="translate(1010,530)" d="m0 0 9 6 5 4 8 4 1 3-9-3-11-8-3-3z" fill="#2A57D7"/>
<path transform="translate(1510,263)" d="m0 0h11v43h-1l-1-35-2-5-7-2z" fill="#1743D1"/>
<path transform="translate(892,378)" d="m0 0h1l1 26v22l-4-1-3-3 1-2 4 3z" fill="#7EBAFB"/>
<path transform="translate(1531,546)" d="m0 0 12 1h12l12 1-4 2h-17l-15-3z" fill="#5E92FB"/>
<path transform="translate(1270,338)" d="m0 0 4 1 7 7 7 12-1 4v-2h-2l-6-11-9-10z" fill="#2A51D1"/>
<path transform="translate(510,550)" d="m0 0h2l-2 4-9 4-7 3h-5l-1-2 21-8z" fill="#6FACFD"/>
<path transform="translate(530,526)" d="m0 0 2 1-3 3-1 4-9 9h-1l1-7 7-7z" fill="#4368E9"/>
<path transform="translate(236,396)" d="m0 0 1 4 4 2-4 2-2 5-4 3h-2l1-5 5-8z" fill="#6BAAFD"/>
<path transform="translate(912,214)" d="m0 0 6 1 9 6 7 7-1 3-7-7-9-6-4-1z" fill="#244DCF"/>
<path transform="translate(943,541)" d="m0 0h1v8h-13l-3-2 6 1 1-3 7-3z" fill="#4B77F7"/>
<path transform="translate(1048,518)" d="m0 0h1v31h-11l4-2 2-2h3z" fill="#456CEE"/>
<path transform="translate(1589,532)" d="m0 0h2l-2 4-8 7-5 2-3-1 8-6h2v-2z" fill="#1E49D1"/>
<path transform="translate(560,498)" d="m0 0 1 3-12 12h-2l2-4 5-7z" fill="#1D48CD"/>
<path transform="translate(464,567)" d="m0 0 2 1-1 2-21 6h-3v-2z" fill="#62A2FC"/>
<path transform="translate(276,211)" d="m0 0h11v1h-6l1 2v6l-6-2z" fill="#68A7FC"/>
<path transform="translate(1706,323)" d="m0 0h10l-4 2-12 3-4-1 5-3z" fill="#1B45CF"/>
<path transform="translate(1814,505)" d="m0 0h8l-5 9-2-4 1-4z" fill="#214FD5"/>
<path transform="translate(1774,383)" d="m0 0 4 2 5 13-2 1-6-12z" fill="#2652D3"/>
<path transform="translate(560,447)" d="m0 0h3l-1 5-6 5-3 3 1-5 3-3h2z" fill="#4C80F8"/>
<path transform="translate(1830,447)" d="m0 0h2l-1 4-6 4h-5l5-4z" fill="#2250D5"/>
<path transform="translate(1579,366)" d="m0 0m-1 1m-1 1m-1 1m-3 1h3v3l-8 3-4-1 5-2 1-2z" fill="#204DD4"/>
<path transform="translate(759,540)" d="m0 0h1v9h-11v-1h5l1-3h3z" fill="#4872F4"/>
<path transform="translate(895,209)" d="m0 0 13 2 2 2h-7l-5-1-3 3z" fill="#224BCF"/>
<path transform="translate(823,332)" d="m0 0 3 1 7 10v2l-4-2-6-9z" fill="#2D56D3"/>
<path transform="translate(1297,542)" d="m0 0h1v7h-9l3-1 1-3 3-1z" fill="#4570F5"/>
<path transform="translate(1640,493)" d="m0 0 4 5 2 4-1 4-3-4-2-4z" fill="#2552D7"/>
<path transform="translate(1281,351)" d="m0 0 4 1 3 6-1 4v-2h-2z" fill="#244ED1"/>
<path transform="translate(1477,495)" d="m0 0 2 2 5 10-1 3-3-4-3-7z" fill="#2A58D7"/>
</svg>
