<?xml version="1.0" encoding="UTF-8"?>
<svg version="1.1" viewBox="0 0 2048 298" width="1280" height="1280" xmlns="http://www.w3.org/2000/svg">
<path transform="translate(1233,82)" d="m0 0h117l10 1 3 3 2 1 2 15 3 6v2h2l9 9 7-10 9-16 7-9 2-2h54l9 1 8 9 8 12 12 16 1 3h2l4 8 1-9 1-34 4-1 2-5h63l9 1 11 15 10 16v2l5-5 12-22 5-6 10-1h54l9 1v3l4-1-1-2 13-1h122l5 1-1 3 7-1-5-1v-1l15-1h112l9 1 6 5 2 16 4 6 4 5 2 5 1 10-1 19 3 18 2 9 1 17-2 17-4 10-4 6-8 7-9 4-11 2h-703l-15-2-12-6-3-4-12-4-9-7-9-11-4-11-1-7v-66l2-11 4-9 7-9 7-6 5-3z" fill="#818283"/>
<path transform="translate(85,82)" d="m0 0h104l11 1 6 3 4 4 5-2 1-2 6-3 15-1h250l10 1 5 4 1 2 1 12 3 9 4 2 8 6 10-17 9-14 5-5h61l5 5 8 10 13 19 7 8 4 8 2-45 4-2 1-3h72l8 1 11 12 3 5 1-10 7-8h54l9 1 5 4 1 2 2 15 4 6 4 4 3 7 1 7v88l-3 12-5 6-6 3-10 2h-34l-14-2-13-3h-14l-17 4-10 1h-447l-20-2h-23l-18 2h-83l-16-2-12-6-3-4-12-4-10-8-8-10-4-12-1-8v-60l2-15 4-10 11-12 8-5zm275 2v2h2v-2z" fill="#451E1A"/>
<path transform="translate(889,82)" d="m0 0h97l11 1v3h3v-4h148l11 1 5 5 2 16 4 6 6 7 2 9v14l-3 12-6 7-14 10-7 7-9 13-4 5-10 6-25 6-8 6-9 16-5 5-6 4-9 2h-148l-14-3-8-4-4-4v-2l-8-1-8-4-10-10-6-10-3-10v-75l4-13 7-9 7-7 7-4z" fill="#5A5A5A"/>
<path transform="translate(1233,82)" d="m0 0h117l10 1 3 3 2 1 2 15 3 6v2h2l9 9 7-10 9-16 7-9 2-2h54l9 1 8 9 8 12 12 16 1 3h2l4 8 1-9 1-34 4-1 2-5h63l9 1 11 15 10 16v2l5-5 12-22 5-6 10-1h54l9 1v3l4-1-1-2 13-1h122l5 1-1 3 7-1-5-1v-1l15-1h112l9 1 6 5 2 18-1 12-7 11 1 5 6 9 3 9 1 8v11l-2 6-12 3-5 11-4 6-3 3-2-1 6-13 1-4v-18l-8-16-7-7-5-2-59-1h-8l-2-1 2-7 71-1 14-28-15-1h-85l-9 3-5 4-7 11-3 8v14l5 12 6 8v3l-14 4-12 1-36-1-5 3-3 2-28 2h-19v-3l10-1 38-1 8-16 7-13h-64l1-10h91l2-30h-109l-9 4-3 1-2 4-5 8-2 5-1 40-3 2-10-1-1-3 1-60-46 1-10 19-14 27-7 14-4 1-6-9-17-29-9-15-3-6v-2h-46l-1 66h-20l-10-5-6-5-9-16-15-25-8-13v-2h-39l-2 5-9 17-13 23-11 19-1 1-16 2-14-2-2-5h-2v-23h-58l-3 3-12 22-2 4h37l1 2-1 7h-51l-2-2-1-9v-32l3-3h89l-1-29-11-1h-56l-41 1-8 4-7 8-5 11-1 56 2 9 2 6-5-5-4-9-1-2h-10l-1 1-1 7h-1v-66l2-11 4-9 7-9 7-6 5-3z" fill="#FBFBFB"/>
<path transform="translate(85,82)" d="m0 0h104l11 1 6 3 4 4 5-2 1-2 6-3 15-1h250l10 1 5 4 1 2 1 12 3 9 4 2 8 6 10-17 9-14 5-5h61l5 5 8 10 13 19 7 8 4 8 2-45 4-2 1-3h72l8 1 11 12 3 5 1-10 7-8h54l9 1 5 4 1 2 2 15 1 6-2 6-1 59-1 2-15 3-2-3-1-10v-66l-38-1v60l-4-2-11-14-5-7-1-8-10-14-10-13-4-4-60-1 1 5 2 34v30l-4 1h-15l-13-5-13-22-15-25-7-12v-2h-38l-13 23-12 22-10 17-7 3-10 2h-41l-13-1-7 1 3-9 10-18-63-1v-9l1-1h91v-29l-14-1h-91l-10 3-7 6-7 14-1 40-3 4-14 1-14 2-20 1h-47l-1 2v-41h74l5-4 11-19 2-5 1-6h-112l-9 3-5 5-6 10-4 12v23l4 2v22l3 10 6 11 8 7 5 2 60 2 50 1 1 2-111 1-10-2-10-9v-3h-2l-4-8-3 3-6 9-8 7-5 2h-62l-20-1v-1l17-1 48-1 14-2 8-6 6-7 3-5 2-9v-21l-1-32-5-10-6-7-6-4-7-2-11-1h-41l-39 1-8 4-7 8-5 11-2 62-4-5-3-2h-9l-1 6h-1v-60l2-15 4-10 11-12 8-5zm275 2v2h2v-2z" fill="#FBFBFB"/>
<path transform="translate(236,97)" d="m0 0h32l80 1v6l-8 16-7 10-4 3h-40l-34-1 1 39 3-1h44l20-1 21-3h7l2-3 1-40 7-14 8-7 10-3h91l14 1 1 1v29l-1 1h-91l-1 9h64l-13 26v1l7-1 12 1h41l16-4 15-26 13-24 7-12 1-1h36l4 4 11 20 10 16 12 20v2l5 1 8 3h19l-1-30-2-39h60l5 5 10 13 8 11 2 5v5l-5-5-11-13-9-12-5-5h-50l-1 105h38v-60l7 6 7 8 7 9 8 10 11 13 1 4 4 2 6 7 28 2 22 1v1l-6 1h-50l-8-9-5-6v-2h-2l-6-8-4-1h-11l-3 3-1 3v12l1 8-1 1h-142l-4-5-5-8-5 1-6 11-1 1h-48l-3-1 1-7 5-13 2-3 1-6-7 4-3 8-1 16-1 1-107 1-11-1-8-5-3-3-1-3-2-1v-3h-2v-3h-2l-2-3v-3h-5l2 8v4h-2l-5-5-5-8-4-8-75-1-1-2v-43l1-1h74l5-8 10-18 1-4h-104l-10 3-6 5-6 12-1 3-1 34-2-4-3-2-1-7v-16l4-12 7-12 9-6z" fill="#CBCBCB"/>
<path transform="translate(662,100)" d="m0 0h50l5 5 9 11 20 25 10 13 4 5 2 1v-60h38l1 1v66l1 10 1 2 10-2h5l1-61 3-8 5 3 5 10 1 7v88l-3 12-5 6-6 3-10 2h-34l-14-2-13-3h-14l-17 4-10 1h-447l-20-2h-23l-18 2h-83l-16-2-12-6-3-4-3-2 119-1 9-7 4 1 6 5 5 1h488l5-6-2-3-8-3h-87v-1l83-1-1-8v-12l3-6 2-1h11l5 2 5 6v2h2l11 14 2 2h50l-34-2-10-1-8-9-2-1-3-5-13-15-7-9-10-13-7-7-1 59h-38v-105z" fill="#5A5A5A"/>
<path transform="translate(1279,99)" d="m0 0h56l11 1 1 1v29l-19 1h-72v34l1 9 1 1 51 1v-8l-37-1 2-6 12-22 3-2h25l33 1-1 68-70 2h-16l12 1 78 1v-14l2-10 4-3v2h5l-2 9-4 8-1 8h50l7-11 2-3h3l9 14 143 1v-25h2v2l4 2 4 9 6 10v2l45-1 8-15 5-10h2v26h47v-27h2l10 16 7 7 4 2 27 1 94 1v-25l1-1h14l-1 5-4 10h-2v10h109l10-1 15 6-6 7-4 3h-264v-2l-3-1v3h-474l-8-4-9-8-7-10-3-9v-14l2-2h10l4 9 5 7-3-8-1-12 1-50 7-14 7-7 7-3z" fill="#25110F"/>
<path transform="translate(1016,99)" d="m0 0h115l14 1 1 1v28l-6 2h-69l-18-1v10h64l-2 6-9 16-3 7-23 1h-27l1 11 4-3 14-1h40l10-1 7-10 4-8 1-9 1-1 23-1 5-5 2-26 2-8 7 6 3 6 1 6v14l-3 12-6 7-14 10-7 7-9 13-4 5-10 6-25 6-8 6-9 16-5 5-6 4-9 2h-148l-14-3-8-4-4-4v-2l-8-1-8-4-10-10-6-10-2-5v-9l3-1h9l3 3 2 6 3 2 2 5 6 5 7 3h91l10-2 7-6 7-11 3-7 2 3 2 23 2-1 1-109z" fill="#AB4021"/>
<path transform="translate(1525,100)" d="m0 0h44l3 3 8 15 17 28 8 14 5 1 2-6 15-30 10-19 4-6h46v74l-1 32h-37l-1-27-1-13h-2l-1 4-7 14-7 12-2 5h-2l-1 5h-36l-6-9-1-4h-2l-8-16-8-11-1 6-1 34h-37l-1-18v-87z" fill="#5A5A5A"/>
<path transform="translate(1987,106)" d="m0 0h2l7 9 2 5 1 10-1 19 3 18 2 9 1 17-2 17-4 10-4 6-8 7-9 4-11 2h-703l-15-2-12-6-3-4-3-2h470v-3l4 1v1h263l8-7v-2l-12-4-5-1 5-4 6-6 1-4h2l1-5 3-6 4-2h10v-23l-2-12-6-12-3-4 1-5 6-9z" fill="#5A5A5A"/>
<path transform="translate(1691,184)" d="m0 0h2l10 16 7 7 4 2 27 1 94 1v-25l1-1h14l-1 5-4 10h-2v10h109l10-1 15 6-6 7-4 3h-264v-2l-3-1v3h-474l-8-4-9-8-7-10-2-6v-9h12l5 5v4l3 1 7 9 7 3h170l7-11 2-3h3l9 14 143 1v-25h2v2l4 2 4 9 6 10v2l45-1 8-15 5-10h2v26h47z" fill="#A83D1D"/>
<path transform="translate(662,100)" d="m0 0h50l5 5 9 11 20 25 10 13 5 6 2 1v-19l1-41h26l9 1v104h-49l-8-9-2-1-3-5-13-15-7-9-10-13-7-7-1 59h-38v-105z" fill="#5A5A5A"/>
<path transform="translate(889,82)" d="m0 0h97l11 1v3h3v-4h148l11 1 5 5 2 16 1 6-2 21-1 11-6 6-23 1-1 9-7 13-5 6-10 1h-43l-11 1-3 2-1 6h-1v-17l27-1h23l1-5 9-17 4-7h-64v-10h87l5-1v-28l-14-1h-115l-1 110h-3l-1-2-2-27-3 3-4 8-3 4h-2l-1-4h2l3-9v-59l-6-12-4-5-9-5-3-1-16-1h-29l-41 1-8 4-6 7-5 10-1 6v36l-1 23-3-3-3-5h-8l-4 3v-66l4-13 7-9 7-7 7-4z" fill="#FBFBFB"/>
<path transform="translate(379,99)" d="m0 0h91l14 1 1 1v29l-1 1h-91l-1 9h64l-15 30h-49v7l51-1h41v29l-1 1h-106l-8-3-8-8-6-10-2-10 1-52 7-14 8-7z" fill="#5A5A5A"/>
<path transform="translate(1722,99)" d="m0 0h97l12 1v16l-1 14-1 1h-66l-25-1-1 10h64l-2 6-11 20-2 4h-49l1 6 82 1 8 1v28l-65 1h-19l-23-1-8-4-8-9-1-4h-2l-3-8-1-8v-10l1-1 1-40 6-12 4-5 9-5z" fill="#5A5A5A"/>
<path transform="translate(1868,99)" d="m0 0h85l15 1 1 2-14 27-1 1-71 1-2 6h22l47 1 6 3 7 7 6 11 2 5v18l-1 4h-2l-2 6-9 10-8 4-29 1h-49l-26-1 5-6 6-12 2-6h2v-3h2v-2h70v-10h-66l-10-5-6-7-6-12-1-3v-14l4-10 8-11 8-5z" fill="#090605"/>
<path transform="translate(1016,99)" d="m0 0h115l14 1 1 1v28l-6 2h-69l-18-1v10h64l-2 6-9 16-3 7-23 1h-27l1 11 4-3 14-1h40l10-1 5-5-2 5-8 9-22-1h-30l-6 2-1 25h-48v-15h1l1 14 2-1 1-109z" fill="#5A5A5A"/>
<path transform="translate(129,99)" d="m0 0h41l15 2 6 3 6 5 7 10 2 5 1 32v21h-1v-20l-17-1-7-1v-25l-10-1v16l-3 1-1 32h-61l-1-2-1-24-19-2-2-1v-19l4-12 4-6 8-8-5-1-9 4-8 9-4 9-1 4-1 17-2 5h-1v-27l7-14 7-7 7-3z" fill="#5A5A5A"/>
<path transform="translate(395,211)" d="m0 0h313l10 3 1 4-6 7h-488l-7-2-1-3 11-3 5-3 11-2h86l32 1z" fill="#A83D1D"/>
<path transform="translate(95,102)" d="m0 0 6 1-4 5h-2l-2 4-5 8-3 10-1 19 21 2 1 1 1 26h61v-28l1-4 2-1 1-16 10 1v25l20 1 4 1v25l-3 7-6 8-8 7-6 2-10 1h-37l-43-1-10-3-4-4-5-9v-3h-2l-2-6-1-8v-22l2-5 1-17 4-11 6-8 7-6z" fill="#27100E"/>
<path transform="translate(561,101)" d="m0 0h7l1 3-7 12-12 19-13 23-5 8 26 2-1 6-1 3h36l-2-12-7-15 1-4 5 1 7 10 6 11 2 1 30 1 6 10 5 8 3 5v3h2v3l3 1 2 3v3l-45 1h-30l-14-1-8-13-3-5-2-1v-3l-5 3-1 3h-2l-1 5h-2l-1 5h-2l-2 5-1 1h-41l2-5 3-5 3-7 6-9 5-9 2-4h2l1-4 8-14h3l2-5 4-6 1-4 4-4 9-15 8-13z" fill="#26100E"/>
<path transform="translate(1720,102)" d="m0 0h12l-4 5-7 6-6 11-1 4-1 29-1 4 9-1h68l-1 6-2 4h-49l1 6 82 1 8 1v28l-65 1h-19l-23-1-8-4-8-9-1-4h-2l-3-8-1-8v-10l1-1 1-34 4-11 7-9 5-4z" fill="#451E19"/>
<path transform="translate(1424,102)" d="m0 0h7l-2 5-4 7-3 7-15 25-9 16-5 8h28l-2 7 36-1-1-2-2-12-5-10 1-6 4 1 1 3h2l10 17 31 1 6 9 6 11 2 3v3h2v3h2l4 6v3l-36 1h-42l-10-1-4-5-10-16-4 1-3 6h-2l-1 5h-2l-2 5-2 4h-42l1-5 14-23 6-9 6-11 3-5 4-2 11-16 16-26h2l2-6z" fill="#25100E"/>
<path transform="translate(1279,99)" d="m0 0h56l11 1 1 1v29l-19 1h-72v34l1 9 1 1 50 1v1h-51l-2-4-21-1-2-2-1-7v-32l4-11 6-9 7-7v-1l-9 1-9 6-6 9-3 9-1 9-1 45 5 12 2 1 3 5 4 3 8 2 53 1v1l-27 1h-7l12 1 78 1v-14l2-10 4-3v2h5l-2 9-4 8-1 8h7v1h-127l-8-4-7-9-2-1-1-4-4-3v-2h-12v6h-1v-14l2-2h10l4 9 5 7-3-8-1-12 1-50 7-14 7-7 7-3z" fill="#5A5A5A"/>
<path transform="translate(898,102)" d="m0 0h6v3l-8 7-7 14-1 4v42l20 1 2 4h16l37-1 1-1 1-21v-25h11l2 1v44h24v9l-4 9-5 5-8 7-7 2-14 1h-25l-43-1-7-3-6-5v-2h-3l-4-9v-2h-2v-17l1-37 3-10 6-10 7-6z" fill="#26110F"/>
<path transform="translate(1868,99)" d="m0 0h85l15 1 1 2-14 27-1 1-71 1-2 6h22l47 1 6 3 7 7 1 3-25 1-31 2h-45l-4-10-1-4v-11l3-10 3-5 2-5 5-5h-6l-8 6-5 7-2 9v10l4 20-1 3-6-9-4-10v-14l4-10 8-11 8-5z" fill="#5A5A5A"/>
<path transform="translate(68,154)" d="m0 0h1l1 19 2 14h2l4 8 4 6 7 3 4 1 43 1v1l-18 1 10 1h62l8-4 8-9 5-8 3 3 2 6h2l3 5 7 6 10 2 110-1-50-1 1-2 45-1-7-12 1-2 6 5v2h2l-3-12 3-1 3 1 2 6h2v3h2v3l3 1 3 5 8 5 16 1 102-1 1-16 3-8 6-4h2v6l-8 18-1 5h51l7-12 5-1 6 9 3 4 44 1v1h-211l-34 2-34-1h-83l-13 3-9 4-6 1-3-3-5 1-7 6h-123l-8-4-8-7-8-11-3-10v-14l1-1h9l5 4 1 2z" fill="#83331B"/>
<path transform="translate(370,110)" d="m0 0h3l-2 6-3 7-1 7-1 33 76 1-1 6h-49v7l51-1h41v29l-1 1h-106l-8-3-8-8-6-10-2-10v-12h3l2-10 1-19 2-10 4-9z" fill="#441E1A"/>
<path transform="translate(1419,100)" d="m0 0h35l4 4 15 26 8 13 13 22 1 3h-30l-8-13-2-5h-2l-2-3-3-1v6l6 13 1 9 1 3h-37l2-7h-28l2-5 14-24 13-22 6-12 3-5-7 1-3 6-3 3-10 17-11 16-5 7-3 1 2-5 12-22 9-16 5-9z" fill="#5A5A5A"/>
<path transform="translate(1167,108)" d="m0 0 7 6 3 6 1 6v14l-3 12-6 7-14 10-7 7-9 13-4 5-10 6-25 6-8 6-9 16-5 5-6 4-9 2h-148l-14-3-8-4-4-4v-2l-4-1 112-1 1-3 2 1v3l66-1 3-3 6-5 5-10 5-6 9-5 25-6 9-6 10-14 7-8 10-7h2v-3l-22-1v7h-1v-8l1-1 23-1 5-5 2-26z" fill="#595959"/>
<path transform="translate(555,100)" d="m0 0h36l4 4 11 20 10 16 13 22 4 6v2h-29l-4-4-8-14-5-5h-3l1 6 6 12 1 12h-36l2-9-27-1 6-11 15-26 14-22 2-6h-10l-2 5-12 20-5 7h-2l-1 5-6 10h-2l2-5 13-24 9-16z" fill="#5A5A5A"/>
<path transform="translate(762,100)" d="m0 0h38l1 1v66l1 10 1 2 10-2h5l1-61 3-8 5 3 5 10 1 7v88l-3 12-5 6-6 3-10 2h-34l-14-2-13-3h-14l-17 4-10 1h-447l-20-2h-23l-18 2h-83l-16-2-12-6-3-4-3-2h11l-1 2 3 3 10 3 9 1h87l21-2h17l21 2h449l21-4 7-2h7l22 5 8 1h38l10-4 4-5 2-8 1-27v-55l-2-15-2-5h-2l-2 40-1 32h-3l-10 1-1 22-1 1h-58v-1l47-1-34-2v-1h39v-104l-35-1v41l-1 19-2-1z" fill="#7C7D7E"/>
<path transform="translate(1623,163)" d="m0 0h63v43h-37l-1-27-1-13h-2l-1 4-7 14-7 12-2 5h-2l-1 5h-36l-6-9-1-4h-2l-8-16-6-9v-2z" fill="#170A09"/>
<path transform="translate(241,99)" d="m0 0h95l9 1-1 6-10 18-4 6-1 1h-74l-1 27h-11l-14-1v-11l1-19 4-10 9-10 5-4h-12l-6 4-5 5-4 10-1 2h-2v18h-1v-19l5-12 6-7 8-4z" fill="#5A5A5A"/>
<path transform="translate(1643,101)" d="m0 0h32l10 1 1 6 1 66h-1v-11h-63l-10-1 1-6 6-12 4-10 12-21 6-11z" fill="#595959"/>
<path transform="translate(657,97)" d="m0 0h60l5 5 10 13 8 11 2 5v5l-5-5-11-13-9-12-5-5h-50l-1 105h38v-60l7 6 7 8 7 9 8 10 11 13 1 4 4 2 6 7 28 2 22 1v1l-6 1h-50l-8-9-5-6v-2h-2l-6-8-4-1h-11l-3 3-1 3v12l1 8-1 1h-142l-4-5-5-8-5 1-6 11-1 1h-48l-3-1v-5l1 2h2l2-6 5-7 1 2-6 10 41-1 3-5h2l1-5h2l1-5h2l1-4 2-2h3v3l3 1 10 17 14 1h75l-3-6-2-1v-3h-2l-6-11-13-22 2-1 10 4h19l-1-30z" fill="#7A7B7C"/>
<path transform="translate(1987,106)" d="m0 0h2l7 9 2 5 1 10-1 19 3 18 2 9 1 17-2 17-4 10-4 6-8 7-9 4-11 2h-703l-15-2-12-6-3-4-3-2h10l1 4 7 3 12 2h710l12-4 8-6 5-8 3-10 1-8v-15l-5-30v-28l-3-9-2-3-2 2z" fill="#7C7D7E"/>
<path transform="translate(708,183)" d="m0 0h11l5 2 5 6v2h2l11 14 5 3 64 1 7 3 2 2-1 4-5 5h-77l-5-2-16 4-7 1-448-1 1-2 451-1 5-6-2-3-8-3h-87v-1l83-1-1-8v-12l3-6z" fill="#3A393A"/>
<path transform="translate(122,181)" d="m0 0 43 1h33l4 1 1 6-6 8-8 7-6 2-10 1h-37l-43-1-10-3-4-4-5-9v-2l3 1 5 7h3l3-11 3-2z" fill="#451E1A"/>
<path transform="translate(110,130)" d="m0 0 57 1v45h-54l-4-2-1-3-1-18v-20z" fill="#FAFAFA"/>
<path transform="translate(1240,182)" d="m0 0h59l41 1 2 1v2h4v20l-52 1-53-1-10-3-5-5v-3l-3-1v-3l3 1 5 5 2 1 3-12z" fill="#451E1A"/>
<path transform="translate(1854,162)" d="m0 0 5 1 7 3 66 1v10h-70v2h-2v3h-2l-2 8-7 13-2 2 24 1h49l29-1 8-4 8-9 3-6 1 3-5 10 5-4 8-16 9-2 3-1 1-5h1v10l-1 2-13 2-5 11h-2l-1 5-7 7-4 2-6 1h-109l-1-5 1-6h2l2-8 6-13h-15l-4 1-4-1-1-2-92-1v-6h11v1h-10v3l47-3 5-4 7-1 37 1 15-3z" fill="#C8C8C8"/>
<path transform="translate(907,181)" d="m0 0h22l34 1h32l5 4-2 6-5 5-8 7-7 2-14 1h-25l-43-1-7-3-6-5v-2h-3l-2-6h2l6 7 3 1 3-13 4-3z" fill="#451E1A"/>
<path transform="translate(914,130)" d="m0 0h17l33 1 1 9v35l-1 1h-51l-2-3v-41z" fill="#FAFAFA"/>
<path transform="translate(712,146)" d="m0 0 6 4 12 14 4 6 10 1 55 1v34h-49l-8-9-2-1-3-5-13-15-6-8 1-6-4-7-1-3h-2z" fill="#170B0A"/>
<path transform="translate(1918,181)" d="m0 0 21 1h26l2 2 3-2v4h-2l-2 6-9 10-8 4-29 1h-49l-26-1 5-6 5-10 1 4-2 8-1 2h6l6-9 5-8 13-3 14-2z" fill="#461E1A"/>
<path transform="translate(1528,101)" d="m0 0h10v65h24v40h-37v-40l1-14 1-34z" fill="#1E1C1C"/>
<path transform="translate(1720,102)" d="m0 0h12l-4 5-7 6-6 11-1 4-1 29-1 4 9-1h68l-1 6-2 4h-49l2 9h-14l-9 2-2 5-4 7-6-2v-2h-2l-3-8-1-8v-10l1-1 1-34 4-11 7-9 5-4z" fill="#090605"/>
<path transform="translate(665,101)" d="m0 0h10v70h23l1-2v37h-37v-37l2-67z" fill="#060302"/>
<path transform="translate(1016,101)" d="m0 0h13v28l-1 45h24v32h-36l-1-9v-23z" fill="#160908"/>
<path transform="translate(1289,137)" d="m0 0h25l33 1-1 33h-24v-4h-8l-5 1-37-1 2-6 12-22z" fill="#5A5A5A"/>
<path transform="translate(370,110)" d="m0 0h3l-2 6-3 7-1 7-1 33 76 1-1 6h-49l1 7 56 1h31l3-1v9l-5-4h-53l-39 1-12 1-3 12-1 2-4-1-6-6v-2l-3-1-3-6-1-7v-12h3l2-10 1-19 2-10 4-9z" fill="#0A0706"/>
<path transform="translate(1135,150)" d="m0 0h20l2 1v3l-11 7-7 8-10 14-8 6-9 3-18 4-10 6-5 7-5 10-4-2-2-4-9-1h-50l-28-1v-1l10-2 7-6 7-11 3-7 2 3v24h48v-25l7-3h34l18 1 8-9 4-9 5-9z" fill="#3A393A"/>
<path transform="translate(1444,182)" d="m0 0h55l6 4 5 5v3h2v3h2l4 6v3l-36 1h-42l-3-10-3-8 1-4z" fill="#451E1A"/>
<path transform="translate(580,182)" d="m0 0h56l5 3 1 2 2-1 3 6 1 4h2v3l3 1 2 3v3l-45 1h-30l-3-2-7-17 1-3z" fill="#461E1A"/>
<path transform="translate(1687,163)" d="m0 0h10l1 1 2 17 2 8h2l6 9 6 5 5 2 23 1h84v-28l-90-1v-1h91l1 3 15-1 8 1-1 5-2 2h-14l-1 25h-94l-27-1-6-4-7-7-8-13v-2h-2v27h-47v-12h1v11l5-1-1-3h37v-32z" fill="#777879"/>
<path transform="translate(236,102)" d="m0 0h14l-5 4-8 8-5 9-1 4-2 30h14l11 1 1 21-17 1-5 2-6 11-5-1-6-12-1-5v-16l1-2 2-33h2l2-6 3-7 7-7z" fill="#070403"/>
<path transform="translate(561,101)" d="m0 0h7l1 3-7 12-12 19-13 23-5 8 26 2-2 12-8-1h-14l-10 2-4 4-4 8-8 13h-13l2-5 3-5 3-7 6-9 5-9 2-4h2l1-4 8-14h3l2-5 4-6 1-4 4-4 9-15 8-13z" fill="#170A09"/>
<path transform="translate(236,97)" d="m0 0h32l80 1v6l-8 16-7 10-4 3h-40l-34-1 1 39 3-1h44l20-1 21-3h7l2-2 2 18 2 4 1 9-4-4-8-12-7-2 7 17v4h-2l-5-5-5-8-4-8-75-1-1-2v-43l1-1h74l5-8 10-18 1-4h-104l-10 3-6 5-6 12-1 3-1 34-2-4-3-2-1-7v-16l4-12 7-12 9-6z" fill="#CBCBCB"/>
<path transform="translate(1662,163)" d="m0 0h24v43h-37l-1-27v-15z" fill="#070302"/>
<path transform="translate(1234,97)" d="m0 0h46l71 1-1 32-1 7-3-4h-21l-67 1v26l2 6 10 1 2-5 2-1-2 6h37l1 2-1 7h-51l-2-2-1-9v-32l3-3h89l-1-29-11-1h-56l-41 1-8 4-7 8-5 11-1 56 2 9 2 6-5-5-4-9-1-2h-10l-1 1-1 7h-1v-14l2-4 4-2 9-2 1-1v-41l4-11 6-8 6-5z" fill="#ccc"/>
<path transform="translate(1167,108)" d="m0 0 7 6 3 6 1 6v14l-3 12-6 7-14 10-7 7-9 13-4 5-10 6-25 6-8 6-9 16-5 5-6 4-9 2h-148l-14-3-8-4-4-4v-2l-4-1h9l5 5 9 3 9 1h147l9-3 5-5 4-6 6-11 6-5 8-4 20-4 10-6 7-8 7-11 11-10 9-7 5-6 2-10-1-16-3-6-1-1-2 28-6 6h-25v-1l23-1 5-5 2-26z" fill="#7C7D7E"/>
<path transform="translate(99,212)" d="m0 0h85l8 3 4 3 9 2v2l-4 3h-123l-8-4 12-6 8-2z" fill="#A93E1E"/>
<path transform="translate(1424,102)" d="m0 0h7l-2 5-4 7-3 7-15 25-9 16-5 8h28l-2 9-4 1-1-1h-14l-12 2-5 4-5 10-7 11h-13l1-5 14-23 6-9 6-11 3-5 4-2 11-16 16-26h2l2-6z" fill="#160908"/>
<path transform="translate(1279,99)" d="m0 0h56l11 1 1 1v29l-19 1h-72v34l1 9 1 1 50 1v1h-51l-3-4-1-25v-15l3-5h22l68 1v-27h-105l-10 5-6 7-5 11-1 4v53l5 12 2 1 3 5 4 3 8 2 53 1v1l-27 1h-7l12 1 78 1v-14l2-10 4-3v2h5l-2 9-4 8-1 8h7v1h-127l-8-4-7-9-2-1-1-4-4-3v-2h-12v6h-1v-14l2-2h10l4 9 5 7-3-8-1-12 1-50 7-14 7-7 7-3z" fill="#6C6D6D"/>
<path transform="translate(934,99)" d="m0 0h29l16 1 9 4 6 5 3 4-1 2-6-7-10-5-22-1h-61l-7 3-8 7-7 14-1 59h2l4 9v2h3l4 5 5 3 4 1 45 1h23l14-1 9-3 9-9 1 3 4-4 6-11h2l1 6-3 1-4 8-7 9-5 4-10 2h-91l-7-3-8-7-1-4-4-4-1-6h-14l-1 4v-9l4-4h8l5 8 1-22v-36l2-8 6-11 8-7 5-2z" fill="#707071"/>
<path transform="translate(1991,161)" d="m0 0h1l2 26-2 18-2 6-6 9-5 4-6 3-13 1-225-1v-1l11-1 221-1 8-7v-2l-12-4-5-1 5-4 6-6 1-4h2l1-5 3-6 4-2h10z" fill="#393839"/>
<path transform="translate(890,97)" d="m0 0h92l8 2 8 7 4 9 1 2 1 47h11v46h-3l-1-2-2-27-3 3-4 8-3 4h-2l-1-4h2l3-9v-59l-6-12-4-5-9-5-3-1-16-1h-29l-41 1-8 4-6 7-5 10-1 6v36l-1 23-3-3-3-5h-8l-4 3v-9l4-5 11-3 1-6v-39l4-9 6-8 7-5z" fill="#ccc"/>
<path transform="translate(657,97)" d="m0 0h60l5 5 10 13 8 11 2 5v5l-5-5-11-13-9-12-5-5h-50l-1 105h14v1h-38v-1h18l-3-6-2-1v-3h-2l-6-11-13-22 2-1 10 4h19l-1-30z" fill="#CACACA"/>
<path transform="translate(780,211)" d="m0 0h31l7 3 2 2-1 4-5 5h-77l-5-3-5-6v-2l7-2z" fill="#AB4020"/>
<path transform="translate(214,165)" d="m0 0h1l2 15 8 16 8 7 5 2 60 2 50 1 1 2-111 1-10-2-10-9v-3h-2l-4-8-3 3-6 9-8 7-5 2h-62l-20-1v-1l17-1 48-1 14-2 8-6 6-7 3-5 2-9 1-9 3-2 4 1z" fill="#757677"/>
<path transform="translate(497,181)" d="m0 0h2v6l-8 18-1 5h51l7-12 5-1 6 9 3 4 44 1v1h-261l-71-1v-1l74-1-50-1 1-2 45-1-7-12 1-2 6 5v2h2l-3-12 3-1 3 1 2 6h2v3h2v3l3 1 3 5 8 5 16 1 102-1 1-16 3-8z" fill="#492D2A"/>
<path transform="translate(1346,140)" d="m0 0h1v21h2l2 4 15 2 14-1-1 4-13 21-7 11-2 5h14v1h-16v-9l4-7 2-7h-5-2l-2 4-2 21h-78l-21-1v-1l16-1 40-1h39z" fill="#CBCBCB"/>
<path transform="translate(1325,132)" d="m0 0h21l2 3v11h-1v-8h-58l-3 3-11 20-4 4-1 2h-10l-3-7v-24l3-3z" fill="#F8F8F8"/>
<path transform="translate(764,182)" d="m0 0h20l13 2 2-1v23h-40l-1-4-9-15v-2l7-2z" fill="#451E1A"/>
<path transform="translate(1970,164)" d="m0 0h1v18l-4 3-2-2h-34l-13-1-23 1-18 3-8 3-8 14-2 2h-7l2-5 3-16 1-2h2v-3h2v-2h70v-7h1v7l15-3 17-1 4 2z" fill="#251110"/>
<path transform="translate(1563,165)" d="m0 0 5 5 7 10 5 11v2h2l7 12 36 1 1-5h2l3-9 3-5 8-14 3-7h2l1 2 1 11 1 29 21 1v1h-26l-1-11v-14h-2l-2 5-8 16-3 5h-45l-8-14-3-7-4-4-3-5v-3h-2l-1 18h-1v-24z" fill="#C5C5C5"/>
<path transform="translate(274,222)" d="m0 0 92 1h23l123-1h124l77 1v2h-488v-1z" fill="#BA4D30"/>
<path transform="translate(95,96)" d="m0 0 42 1h50l8 3 8 7 5 9-1 40h-1l-1-32-5-10-6-7-6-4-7-2-11-1h-41l-39 1-8 4-7 8-5 11-2 62-4-5-3-2h-9l-1 6h-1v-14l3-4 11-2 2-5v-39l4-10 7-9 9-5z" fill="#ccc"/>
<path transform="translate(1279,222)" d="m0 0h372l49 1v2h-439v-2z" fill="#BA4D30"/>
<path transform="translate(1016,101)" d="m0 0h13v28l-1 45h-12z" fill="#1D1C1C"/>
<path transform="translate(1536,166)" d="m0 0 25 1v22l-2-4-5-2-11 1-4 1-1 20-1 1h-12v-39z" fill="#170908"/>
<path transform="translate(1700,222)" d="m0 0 4 1v1l7 1 1 2h-428l-13-1v-1h429z" fill="#3A3839"/>
<path transform="translate(339,177)" d="m0 0 7 1 8 11 3 5v-6l4 5 7 8 5 3 4 1h106l1-25 7-1h8l1 5-1-3-7 4-3 8-1 16-1 1-107 1-11-1-8-5-3-3-1-3-2-1v-3h-2v-3h-2l-2-3v-3h-5l-1 3-4-10z" fill="#727373"/>
<path transform="translate(818,96)" d="m0 0 2 4 2 6-1 7-1 3-1 59-1 2-15 3-2-3-1-10v-66l-38-1v54h-1l-2-42-1-14 1-1h45l1 1v65l3 3h8l1-62z" fill="#ccc"/>
<path transform="translate(561,101)" d="m0 0h7l1 3-7 12-12 19-13 23-5 8 16 1v1l-32 1v-2h2l1-4 8-14h3l2-5 4-6 1-4 4-4 9-15 8-13z" fill="#211F1F"/>
<path transform="translate(1990,171)" d="m0 0h1v10l-1 2-13 2-5 11h-2l-1 5-7 7-4 2-6 1h-109l-1-5 1-6 2 2 5-9 7-7-2 6-6 11-2 2 24 1h49l29-1 8-4 8-9 3-6 1 3-5 10 5-4 8-16 9-2 3-1z" fill="#737374"/>
<path transform="translate(391,170)" d="m0 0h1l1 7 56 1h31l3-1v9l-5-4h-53l-39 1-12 1-3 12-1 2-4-1-6-6v-2l-3-1-3-6v-5l2 2 10-4 6-2 7-1h11z" fill="#250F0D"/>
<path transform="translate(665,101)" d="m0 0h10v70h-13l2-69z" fill="#1B1A1A"/>
<path transform="translate(1720,102)" d="m0 0h12l-4 5-7 6-6 11-1 4-1 29-1 4-11 2-1 1-1 9h-1v-10l1-1 1-34 4-11 7-9 5-4z" fill="#1F1D1D"/>
<path transform="translate(1126,171)" d="m0 0 1 2-7 9-3 3-22-1h-30l-6 2-1 25h-48v-15h1l1 14 2-1 1-12h1v9h36v-27l2 2 4-3 14-1h40l10-1z" fill="#7A7B7C"/>
<path transform="translate(1601,182)" d="m0 0h25l6 2 2 6-4 6-2 5h-2l-1 5h-24l-6-12-3-9z" fill="#451E1A"/>
<path transform="translate(74,151)" d="m0 0 31 2v21h-16l-8 3-9 1-2-4v-22z" fill="#060302"/>
<path transform="translate(1490,158)" d="m0 0 9 6 5 2h18l2 1 1 21v18h33v1h-48v-1h8l-4-7v-2h-2v-3h-2l-3-6-7-12-10-16z" fill="#CACACA"/>
<path transform="translate(1643,101)" d="m0 0h11l-1 7-16 28-13 25-2 1h-9l1-6 6-12 4-10 12-21 6-11z" fill="#201E1E"/>
<path transform="translate(1623,163)" d="m0 0h39v1h-14l-1 4v-2h-2l-1 4-4 8-2 1-2-5-22-1h-20l-11 4-7 1-3 1-7-11v-2z" fill="#070403"/>
<path transform="translate(110,130)" d="m0 0 57 1v45h-54l-4-2-1-3-1-18v-20zm1 3-2 3v19l2 9 3 3 6 1h44l2-3v-32z" fill="#ccc"/>
<path transform="translate(169,156)" d="m0 0h33l4 1v20h-2v-2l-20 1-15 2z" fill="#060302"/>
<path transform="translate(762,100)" d="m0 0h38l1 1v66l1 10 1 2 15-3 2-1v12h-3l-10 1-1 22-1 1h-58v-1l47-1-34-2v-1h39v-104l-35-1v41l-1 19-2-1z" fill="#707172"/>
<path transform="translate(1258,130)" d="m0 0 69 1-2 2-67 1v26l2 6 10 1 2-5 2-1-2 6h37l1 2-1 7h-51l-2-2-1-9v-32z" fill="#CBCBCB"/>
<path transform="translate(1424,102)" d="m0 0h7l-2 5-4 7-3 7-15 25-9 16-5 8-11 1-5 2 2-4 6-11 3-5 4-2 11-16 16-26h2l2-6z" fill="#201E1E"/>
<path transform="translate(914,130)" d="m0 0h17l33 1v2l-49 1-1 1v27l4 4 8 1h36l1 1 1-28h1v35l-1 1h-51l-2-3v-41z" fill="#ccc"/>
<path transform="translate(708,183)" d="m0 0h11l5 2 5 6v2h2l4 5-1 3-15 1 1 5-1 2 1 9-5-4-10-2h-84v-1l83-1-1-8v-12l3-6z" fill="#441E1A"/>
<path transform="translate(236,102)" d="m0 0h14l-5 4-8 8-5 9-1 4-2 30h14v1h-17l-9-1v-15l1-18h2l2-6 3-7 7-7z" fill="#1F1D1D"/>
<path transform="translate(95,102)" d="m0 0 6 1-4 5h-2l-2 4-5 8-3 10-1 19 21 2 1 5-1-3h-18l-13-1h-4v21h-1v-22l2-5 1-17 4-11 6-8 7-6z" fill="#393839"/>
<path transform="translate(1130,162)" d="m0 0 1 2-7 11-2 2-10 1h-43l-11 1-3 2-1 6h-1v-17l27-1h23l1-3h21l4-1z" fill="#D0D0D0"/>
<path transform="translate(272,148)" d="m0 0h62l1 4-1 6-21 1h-41z" fill="#414041"/>
<path transform="translate(531,182)" d="m0 0h14l4 4-2 4h-2l-1 5h-2l-1 5h-2l-2 5-1 1h-28l2-5 9-14 4-3z" fill="#451E1A"/>
<path transform="translate(1642,185)" d="m0 0h2v26h40v1h-204v-1h88v-25h2v2l4 2 4 9 6 10v2l45-1 8-15z" fill="#47201C"/>
<path transform="translate(374,97)" d="m0 0h114v20l-1 15-1 1-93-1v7h64l-1 2-64-1v-9l1-1h91v-29l-14-1h-91l-10 3-7 6-7 14-1 40h-1l-1-19v-24l4-9 6-8 5-4z" fill="#ccc"/>
<path transform="translate(1008,184)" d="m0 0 2 3v24h48v-21l1-1h13v11h1v18l-3-1-2-4-9-1h-50l-28-1v-1l10-2 7-6 7-11z" fill="#43201D"/>
<path transform="translate(699,146)" d="m0 0 7 6 7 8 7 9 8 10 11 13 1 4h2v4l-5-2-9-10-7-7-4-2h-9l-6 3-1 5-1 20h-1z" fill="#CACACA"/>
<path transform="translate(1397,182)" d="m0 0h10l5 4-3 6h-2l-1 5h-2l-2 5-2 4h-29l2-5 9-14 4-3z" fill="#451E1A"/>
<path transform="translate(1738,177)" d="m0 0h82l8 1v4h-45l-38 1-16 1-8 2-2 2-4 10-7-1-3-5 5 1 2-5 4-7 9-3h13z" fill="#2B1513"/>
<path transform="translate(68,154)" d="m0 0h1l1 19 2 14h2l4 8 4 6 7 3 4 1 43 1v1l-18 1 10 1 51 1v1h-93l-8-4-4-5-5-5-3-6-4-2-10-1v5h-1v-14l1-1h9l5 4 1 2z" fill="#707171"/>
<path transform="translate(1738,176)" d="m0 0h91l1 3 15-1 8 1-1 5-2 2h-14l-1 25h-94v-1l81-1-38-1-21-1v-1h65v-28l-90-1z" fill="#6F7070"/>
<path transform="translate(1864,97)" d="m0 0h33l75 1-1 6-8 16-7 11-2 2h-37l-33-1-1-2 71-1 14-28-15-1h-85l-9 3-5 4-7 11-3 8-1 14-2-3v-12l4-13 6-9 8-5z" fill="#ccc"/>
<path transform="translate(1448,146)" d="m0 0 4 1 1 3h2l10 17 31 1 6 9 1 5-3-1-1-2h-39l-3-1v-2h-2l-1-2-2-12-5-10z" fill="#070403"/>
<path transform="translate(1436,146)" d="m0 0 5 4 12 21 3 6h-37l2-6 12-22z" fill="#C5C6C6"/>
<path transform="translate(1564,178)" d="m0 0h2l3 6-1 27h-72l-63-1v-1l10-1 2-1 37-1h80v-10z" fill="#78797A"/>
<path transform="translate(1279,99)" d="m0 0h56l11 1 1 1v29l-19 1h-72v34l1 9 1 1 50 1v1h-51l-3-4-1-25v-15l3-5h22l68 1v-27h-105l-10 5-6 7-5 11-1 4-1 45h-1v-50l7-14 7-7 7-3z" fill="#7C7D7E"/>
<path transform="translate(765,101)" d="m0 0h11v59l-4-1-7-3z" fill="#1C1B1B"/>
<path transform="translate(254,174)" d="m0 0 1 2h75l2 3v4l-3-1h-35l-38 1-19 2-1 3h-2v7l-2 4-4-2-4-4h3l2-6 4-6 5-2 16-1z" fill="#31201F"/>
<path transform="translate(572,147)" d="m0 0 4 1 6 9 9 17v2l-35 1 1-5 13-23z" fill="#CBCBCB"/>
<path transform="translate(505,107)" d="m0 0 2 1v2l4 2 7 6-8 16-10 18-5 7h-23v-8l1-3h24l2-5 3-2 2-31z" fill="#444344"/>
<path transform="translate(698,169)" d="m0 0h1v37h-25v-11l1-11 1-1h18l3 2 1-13h-5v-1h5z" fill="#431E1A"/>
<path transform="translate(965,129)" d="m0 0h11l2 1v44l-13 1z" fill="#1E1C1C"/>
<path transform="translate(1043,181)" d="m0 0 9 3v22h-24v-20l1-2z" fill="#451E1A"/>
<path transform="translate(1011,97)" d="m0 0h138l1 5-1 28-2 3h-37l-55-1-1 8h-1v-10h87l5-1v-28l-14-1h-115l-1 46h-1l-3-42z" fill="#ccc"/>
<path transform="translate(1554,182)" d="m0 0 5 2h3v22h-25l1-21 4-2h7z" fill="#451E1A"/>
<path transform="translate(1242,102)" d="m0 0h6v3l-8 8-7 14-1 4v32l1 7 1 1 19 1 4 4-3 1-1-2-21-1-3-2v-47l5-13-5 4-5 13-1 11-1 27-3 7h-1l1-37 2-13 6-12 8-7z" fill="#393839"/>
<path transform="translate(1016,99)" d="m0 0h115l14 1 1 1v28l-6 2h-69v-1l9-1 62-1 2-26-128-1v73h-1v-74z" fill="#7C7D7E"/>
<path transform="translate(898,102)" d="m0 0h6v3l-8 7-7 14-1 4v42l20 1 1 2h-17l-7-2-1-2v-21l1-29 3-7-4 4-4 10-1 6-1 26-1 12-3 2 1-43 3-10 6-10 7-6z" fill="#3A393A"/>
<path transform="translate(657,97)" d="m0 0h60l5 5 10 13 8 11 2 5v5l-5-5-11-13-9-12-5-5h-50l-1 64h-1l-2-45z" fill="#ccc"/>
<path transform="translate(1672,183)" d="m0 0h9l5 5v18h-24v-20l3-2z" fill="#451E1A"/>
<path transform="translate(1675,173)" d="m0 0 7 1 2 1 2-2v15l-5-4h-9l-9 2-1 20h-13v-25l1-3 4 1 2 1 4 14 2-18 6-2z" fill="#1C0B0A"/>
<path transform="translate(1865,103)" d="m0 0h7l-6 7-6 14-1 5v11l4 13 16 1v1l-20 1-2 6-3-2-4-17-1-7v-10l3-11 8-9z" fill="#1C1A1A"/>
<path transform="translate(552,97)" d="m0 0h43l5 5 13 24 3 11-1 3-15-25-7-12v-2h-38l-13 23-12 22-5 8-1-2 11-23 15-30z" fill="#ccc"/>
<path transform="translate(379,99)" d="m0 0h91l14 1 1 1v29l-1 1h-92v-2h91l-1-10 1-17h-105l-8 3-5 4-7 11-2 5-1 24h-1v-26l7-14 8-7z" fill="#7C7D7E"/>
<path transform="translate(1415,97)" d="m0 0h43l5 5 12 21 5 16-1 2-15-25-8-13v-2h-39l-2 5-9 17-13 23-3 3 2-6 11-24 8-16z" fill="#ccc"/>
<path transform="translate(1719,97)" d="m0 0h28l86 1v18l-1 16-4 1-90-1v-2h91l2-30h-109l-9 4-3 1-2 4-5 8-2 5-1 40h-1l-2-39 3-9 6-10 9-6z" fill="#CACACA"/>
<path transform="translate(1903,222)" d="m0 0h49l13 1v2h-262l1-2h31z" fill="#B94C2F"/>
<path transform="translate(241,99)" d="m0 0h95l9 1-1 6-10 18-4 6-1 1h-75v-2l74-1 6-9 8-14 1-3h-103l-8 3-7 7-4 10-1 2h-2v18h-1v-19l5-12 6-7 8-4z" fill="#7C7D7E"/>
<path transform="translate(822,157)" d="m0 0h1v50l-2 12-4-5-12-3 1-23 5-2h6l2 1 1-5z" fill="#441E1A"/>
<path transform="translate(1346,140)" d="m0 0h1l1 58 1-12 4-6 1-1h9v6l-2 2v-2h-5-2l-2 4-2 21h-78l-21-1v-1l16-1 40-1h39z" fill="#747575"/>
<path transform="translate(550,184)" d="m0 0h3v3l3 1 3 5v4h-9l-5 8-4 6h-48l-3-1v-5l1 2h2l2-6 5-7 1 2-6 10 41-1 3-5h2l1-5h2l1-5h2l1-4z" fill="#797A7A"/>
<path transform="translate(858,186)" d="m0 0h9l3 3 2 6 3 2 2 5 6 5 6 3v1l-15 2-8 1-7-9-4-9v-9z" fill="#48221D"/>
<path transform="translate(379,102)" d="m0 0 7 1-5 5-7 8-4 8-1 3-2 35 34 1v1h-29l-6-1v-33l2-10 5-10-5 3-4 5-3 9-1 7-1 19-1 7-2 3h-2v-14l1-24 6-12 10-8z" fill="#2C2A2B"/>
<path transform="translate(1722,99)" d="m0 0h97l12 1v16l-1 14-1 1h-66v-1l33-1h32v-27h-105l-10 5-6 7-7 14 1-9 5-9 4-5 9-5z" fill="#7C7D7E"/>
<path transform="translate(889,210)" d="m0 0 120 1h53l7 2 1 4h2l-1 4-4 1v-2l-8-4-6-2h-41l-14 2-14-3h-81l-15 2-10 5h-6l-5-6 11-3z" fill="#863219"/>
<path transform="translate(1200,188)" d="m0 0h12l5 5v4l3 1 7 9 6 3v1l-11 1-7 2h-5l-8-11-2-6z" fill="#48231F"/>
<path transform="translate(1976,189)" d="m0 0h12l1 7-1 6-7 11-4 3-14-5-5-1 5-4 6-6 1-4h2l1-5z" fill="#441E1A"/>
<path transform="translate(52,188)" d="m0 0h10l5 3 5 9 5 4 7 7-10 1-10 2-7-6-4-8-1-3z" fill="#47211D"/>
<path transform="translate(1520,97)" d="m0 0h54l5 8 9 16 2 6v7l-3-3-13-22-3-6v-2h-46l-1 47h-1l-3-46z" fill="#ccc"/>
<path transform="translate(1638,97)" d="m0 0h37l15 1v22l-2 26h-1v-46l-46 1-10 19-14 27-5 10-1-3 5-13 9-20 8-16 3-7z" fill="#ccc"/>
<path transform="translate(1536,166)" d="m0 0 25 1v10l-4-3-5-1-13 2-2 26h-2l-3-12-3-5-4-3v-14z" fill="#060302"/>
<path transform="translate(1e3 164)" d="m0 0h11v46h-3l-1-2-2-27-3 3-4 8-3 4h-2l-1-4h2l3-9 1-18z" fill="#CBCBCB"/>
<path transform="translate(1314,166)" d="m0 0h6l2 1v4h24v10l-4 1-3-1h-18l-12-1-1-4 2-9z" fill="#170A09"/>
<path transform="translate(211,188)" d="m0 0 3 3 2 6h2l3 5 7 6 2 2-23 3-8-2-9-1 9-6 7-8z" fill="#441E1A"/>
<path transform="translate(1232,112)" d="m0 0h2l-3 9-1 4v47l2 2h-13l2-7 1-27 1-11 5-13z" fill="#1C1A1A"/>
<path transform="translate(1287,138)" d="m0 0h13l-2 8-9 17v3h-15l2-5 5-10 2-6z" fill="#2D2B2C"/>
<path transform="translate(594,169)" d="m0 0 40 1 5 9-1 2-6-3-15 1h-19l-5-2v-7z" fill="#160A09"/>
<path transform="translate(1720,102)" d="m0 0h12l-4 5-7 6-6 11-2 10h-1v-7l3-9 4-7v-2l-5 3-4 6-4 12-2 16-1 4v11h-3v-33l4-11 7-9 5-4z" fill="#2C292A"/>
<path transform="translate(1643,101)" d="m0 0h11l-1 4v-3l-6 1-8 17-10 18-5 11-2 7v6h-9l1-6 6-12 4-10 12-21 6-11z" fill="#2C2A2B"/>
<path transform="translate(886,114)" d="m0 0h2l-1 6-1 1-1 29v24h-9l2-40 2-9 5-10z" fill="#1C1A1A"/>
<path transform="translate(1691,184)" d="m0 0h2l10 16 7 7 4 2 27 1 4 2h-37l-17-1z" fill="#43221F"/>
<path transform="translate(370,110)" d="m0 0h3l-2 6-3 7-1 7-1 33h-10l2-10 1-19 2-10 4-9z" fill="#1C1A1A"/>
<path transform="translate(1007,181)" d="m0 0h2l1 6-3 1-4 8-7 9-5 4-3 1h-58l-19-1v-1l66-1 1-2 9-3 9-9 1 3 4-4z" fill="#939394"/>
<path transform="translate(763,172)" d="m0 0h36v11l-2 3v-2l-22-1h-11l-15 2-1 2-3-4 2-4 9-1 7-1h29l6 3v-6l-35-1z" fill="#261311"/>
<path transform="translate(1990,160)" d="m0 0h1v11l-2 6-12 3-5 11-4 6-3 3-2-1 6-13 1-4v-18-3l7 5 7 1 5-2z" fill="#CBCBCB"/>
<path transform="translate(90,106)" d="m0 0h2l-1 4-6 10-2 6-2 25 3 1h-13l2-8 1-14 3-9 3-6 6-7z" fill="#2C2A2B"/>
<path transform="translate(1690,179)" d="m0 0 2 1 1 4h-2v27h-47v-12h1v11l5-1-1-3h37v-18z" fill="#818283"/>
<path transform="translate(934,99)" d="m0 0h29l16 1 9 4 6 5 3 4-1 2-6-7-10-5-22-1h-61l-7 3-8 7-7 14-1 44-1 11h-1v-53l2-8 6-11 8-7 5-2z" fill="#7C7D7E"/>
<path transform="translate(706,189)" d="m0 0h21l2 4h2l4 5-1 3-15 1 1 5-8-6-6-2-1-8z" fill="#160B0A"/>
<path transform="translate(1367,105)" d="m0 0 3 3v2h2l8 8-1 6-10 18-3 7h-1v-13l1-23z" fill="#5D5D5E"/>
<path transform="translate(109,128)" d="m0 0 55 1 3 2h-59v22l1 18 1 3 3 1 55 1v2h-61l-1-2v-46z" fill="#4A494A"/>
<path transform="translate(1008,184)" d="m0 0 2 3v24h46v1h-47l-28-1v-1l10-2 7-6 7-11z" fill="#441F1B"/>
<path transform="translate(391,170)" d="m0 0h1l1 9h-17l-6 1-1 6-5 6-4-1v-2l-3-1-3-6v-5l2 2 10-4 6-2 7-1h11z" fill="#190C0B"/>
<path transform="translate(172,129)" d="m0 0 10 1v25h7v1h-21l1-10 2-1z" fill="#1E1D1D"/>
<path transform="translate(336,98)" d="m0 0h12v6l-8 16-7 10-4 3h-40l-34-1v41h-1v-42l1-1h74l5-8 10-18 1-4h-9z" fill="#ccc"/>
<path transform="translate(1736,171)" d="m0 0h1l2 8h-14l-9 2-2 5-4 7-6-2v-2h-2l-2-7 6-2 1-3 9-3 13-2 7 1z" fill="#180B0A"/>
<path transform="translate(1836,185)" d="m0 0h14l-1 5-4 10h-2v10l26 1v1h-32l-2-1v-25z" fill="#46221E"/>
<path transform="translate(1413,196)" d="m0 0h3l9 14 46 1v1h-126v-1l59-1 7-11z" fill="#441E1A"/>
<path transform="translate(549,197)" d="m0 0 5 1 7 11 1 1 44 1v1h-122v-1l57-1 7-12z" fill="#441E1A"/>
<path transform="translate(243,173)" d="m0 0 10 1 2 5-17 1-5 2-6 11-5-1-6-12 1-3 6 1 7-3z" fill="#170908"/>
<path transform="translate(677,171)" d="m0 0h16l5 1v15l-1-2-3-1h-18l-1 11h-1v-18l1-4h2z" fill="#160908"/>
<path transform="translate(517,168)" d="m0 0h41l-1 6-5-1-1-1-8 1-13 2-8 4-5 1-1-3h-4l2-6z" fill="#080504"/>
<path transform="translate(735,199)" d="m0 0 4 4 5 6 3 1 33 1v1l-46 1-8 2-6-7-2-6 1-1 15-1z" fill="#441E1A"/>
<path transform="translate(210,217)" d="m0 0 4 1 5 5v2l4 1-17 2h-20l-48-1-16-1v-1l79-1z" fill="#3A393A"/>
<path transform="translate(1525,100)" d="m0 0h44l3 3-1 2-1-3h-13l-29-1v17l-1 34-2 36h-1v-87z" fill="#707071"/>
<path transform="translate(1687,163)" d="m0 0h10l1 1 2 17 3 8v5l-10-10-3-4-3 8h-1v-14z" fill="#ccc"/>
<path transform="translate(129,99)" d="m0 0h41l15 2v1h-91l-8 3-7 6-7 14-1 7-1 19h-1v-27l7-14 7-7 7-3z" fill="#7C7D7E"/>
<path transform="translate(125,148)" d="m0 0h25v11h-25z" fill="#444344"/>
<path transform="translate(1864,102)" d="m0 0h13l-4 4-8 6 2-4 4-4h-6l-8 6-5 7-2 9v10l4 20-1 3-6-9-3-7v-14l4-12 7-9 6-5z" fill="#3A393A"/>
<path transform="translate(662,100)" d="m0 0h50l2 2h-49l-3 104h-1v-105z" fill="#6E6F70"/>
<path transform="translate(1233,210)" d="m0 0 112 1v1l-97 1-15 2-9 4-7 1-6-5 4-2 7-2z" fill="#93381B"/>
<path transform="translate(1844,207)" d="m0 0h70l35 1-4 2h-84l-18-1z" fill="#ccc"/>
<path transform="translate(875,173)" d="m0 0h11l23 3v2h-11l-10 3-3 5-2 6h-3v-2h-3l-1-5h-2v-11z" fill="#170A09"/>
<path transform="translate(1418,188)" d="m0 0 3 3 8 13 1 1 15 2-2 2 53 1v1h-71l-7-10-2-5-2-1h2l1-3h2z" fill="#707171"/>
<path transform="translate(912,128)" d="m0 0 51 1 1 2h-50l-2 1v41l1 2 50 1v1l-51 1-2-1-1-10v-36z" fill="#7C7D7E"/>
<path transform="translate(1436,146)" d="m0 0 5 4 7 12v2l-7 2-9-1-6-1 2-6 6-10z" fill="#F7F7F7"/>
<path transform="translate(497,181)" d="m0 0h2v6l-8 18-1 5 3 1h-96v-1l90-1 1-16 3-8z" fill="#555"/>
<path transform="translate(214,165)" d="m0 0h1l1 23-4-2h-2l-6 9-5 6h-5l2-4 6-8 3-7 2-14 3-2 4 1z" fill="#C9C9C9"/>
<path transform="translate(1865,103)" d="m0 0h7l-6 7-6 14-1 5v11l4 13 16 1v1h-17l-3-5-2-8v-17l5-12 2-5-6 4-3 5-3 17 2 16 1 10-2-4-4-20v-10l3-11 8-9z" fill="#2C2A2B"/>
<path transform="translate(1868,99)" d="m0 0h85l15 1 1 2-4 7-1-2 2-4-4-1h-94l-8 3-7 6-5 8-3 10-1 11h-1v-14l4-10 8-11 8-5z" fill="#7C7D7E"/>
<path transform="translate(244,207)" d="m0 0h54l50 1 1 2h-91l-14-2z" fill="#ccc"/>
<path transform="translate(572,147)" d="m0 0 4 1 6 9 2 6-9 3-11-1-1-4 8-13z" fill="#F8F8F8"/>
<path transform="translate(380,207)" d="m0 0h80l28 1-1 2h-57l-42-1-8-1z" fill="#ccc"/>
<path transform="translate(665,101)" d="m0 0h10v69h-1v-68h-8v53l-1 14h-3l2-67z" fill="#343233"/>
<path transform="translate(1961,209)" d="m0 0 16 6-6 7-2 1v-2h-4l-3-3-8-4-3-1-75-1v-1l76-1z" fill="#8E3419"/>
<path transform="translate(1563,165)" d="m0 0 5 5 7 10 5 11v2h2v4l-3 1-3-1-3-7-4-4-3-5v-3h-2l-1 18h-1v-24z" fill="#C7C7C7"/>
<path transform="translate(1448,146)" d="m0 0 4 1 1 3h2l10 17 31 1v1l-39 1-1 6-2-2-2-12-5-10z" fill="#242121"/>
<path transform="translate(1221,173)" d="m0 0 21 2-3 3-6 3-4 6-1 6-6-2-4-9v-8z" fill="#160A09"/>
<path transform="translate(1856,186)" d="m0 0 1 2-8 15-2 2 24 1v1l-27 1 17 1 91 1v1h-109l-1-5 1-6 2 2 5-9 4-4z" fill="#646565"/>
<path transform="translate(505,107)" d="m0 0 2 1v2l4 2 7 6-8 16-2 2-3-9-1 12h-1v-14l1-15z" fill="#5E5E5E"/>
<path transform="translate(762,100)" d="m0 0h38l1 1-1 66h-1v-65l-35-1v41l-1 19-2-1z" fill="#7C7D7E"/>
<path transform="translate(89,173)" d="m0 0h14l2 1v5l-17 1-7 6-3 1-5-4v-2h-3v-7l2 4 12-3z" fill="#160908"/>
<path transform="translate(1725,207)" d="m0 0h59l38 1 1 2h-75l-23-2z" fill="#ccc"/>
<path transform="translate(555,100)" d="m0 0h36l4 4 2 6-3-3-2-5h-34l-2 5-12 20-5 7h-2l-1 5-6 10h-2l2-5 13-24 9-16z" fill="#707172"/>
<path transform="translate(491,179)" d="m0 0h8l1 5-1-3-7 4-3 8-1 15h-28v-2l23-1 1-25z" fill="#7C7D7E"/>
<path transform="translate(1260,207)" d="m0 0h47l43 1v2h-78l-21-1v-1z" fill="#ccc"/>
<path transform="translate(1599,178)" d="m0 0h34l4 4-2 5h-3l-1-3-5-1h-25l-10 2-1-4 2-2z" fill="#250F0D"/>
<path transform="translate(1163,95)" d="m0 0h1l3 11-3 36-6 6-23 1-1 9h-1v-11l13-1h11l2-4 1-1 2-40z" fill="#ccc"/>
<path transform="translate(559,195)" d="m0 0 3 3 4 7 14 1v3l48 1v1h-66l-4-5-5-8-3-2 9 1z" fill="#6E6E6F"/>
<path transform="translate(1819,98)" d="m0 0h14v18l-1 16-4 1-90-1v-2h91l2-30h-12z" fill="#ccc"/>
<path transform="translate(379,102)" d="m0 0 7 1-10 10-2-1 4-6-7 2-5 4-5 10-2 7-2 18-1 16h-2v-14l1-24 6-12 10-8z" fill="#434243"/>
<path transform="translate(1641,100)" d="m0 0h46v60h-1l-1-58h-42l-12 22-11 19-1-2 20-39z" fill="#7C7D7E"/>
<path transform="translate(889,210)" d="m0 0 61 1v1l-47 1-15 2-10 5h-6l-5-6 11-3z" fill="#92381C"/>
<path transform="translate(80,210)" d="m0 0 65 1v1l-46 1-14 2-9 4-7 1-7-6 2-1 10-2z" fill="#92381C"/>
<path transform="translate(1445,207)" d="m0 0h51l26 2v1h-89v-1l10-1z" fill="#ccc"/>
<path transform="translate(858,186)" d="m0 0h9l3 3 3 7v3l-10 1h-6l-2-4v-9z" fill="#170A09"/>
<path transform="translate(712,146)" d="m0 0 6 4 12 14 3 4-1 2-4-2 1 4h-3v2l-4-1-4-5 1-6-4-7-1-3h-2z" fill="#201E1E"/>
<path transform="translate(1239,105)" d="m0 0h3l-2 5-6 8-3 8-1 46h-1v-47l5-13-5 4-5 13-1 11-1 27-2 6-1-3 2-35 2-11 5-10 4-5z" fill="#2C2A2B"/>
<path transform="translate(584,146)" d="m0 0 5 1 7 10 6 12-8 1-3 1-2-8-6-13z" fill="#211E1E"/>
<path transform="translate(765,101)" d="m0 0h11v59l-4-1-7-3zm2 1v50l6 6h2v-56z" fill="#323031"/>
<path transform="translate(822,157)" d="m0 0h1v50l-2 12h-1l-3-31-9 1-2 1 1-3 10-1 2 1 1-5z" fill="#393839"/>
<path transform="translate(1582,195)" d="m0 0 4 5 3 5 35 1v1l-16 1v1l21 1v1h-45l-7-12v-2h5z" fill="#767777"/>
<path transform="translate(1419,100)" d="m0 0h35l4 4 4 7-1 2-6-9v-2h-32l-7 10-9 15-4 4-2 5h-2l2-6 12-22 4-7z" fill="#727374"/>
<path transform="translate(443,176)" d="m0 0h41v29h-1l-1-27-2 1h-31l-56-1v-1z" fill="#524B4B"/>
<path transform="translate(118,207)" d="m0 0h70v2l-6 1h-54l-20-1v-1z" fill="#ccc"/>
<path transform="translate(1016,174)" d="m0 0h36v5l-9-1-14 2-3 3-3-2h-7z" fill="#160908"/>
<path transform="translate(1488,172)" d="m0 0 7 1 3 1 2 2 2 1 1 5-3-1-1-2h-39l-3-2 4-2 8-1h7z" fill="#170A09"/>
<path transform="translate(739,190)" d="m0 0 6 1v2l6 1 1-4 8 13-1 3h-9l-8-9-2-1-2-5z" fill="#2B1210"/>
<path transform="translate(1065,183)" d="m0 0h34l16 1 2 2-3 1h-46l-9 1-1 2 1-5z" fill="#5A5A5A"/>
<path transform="translate(392,170)" d="m0 0h49v2l-11 2h-38z" fill="#EBEBEB"/>
<path transform="translate(976,172)" d="m0 0 1 2h25l-1 8-2-3h-35l1-4 2-1h9z" fill="#140A09"/>
<path transform="translate(337,191)" d="m0 0 7 5v2h2l1-4 3 11v5l-2-1-50-1 1-2 45-1-7-12z" fill="#767778"/>
<path transform="translate(929,148)" d="m0 0h16v11h-16z" fill="#403F40"/>
<path transform="translate(1976,189)" d="m0 0h12l1 7-1 4-4 1-13-2 1-6z" fill="#170D0C"/>
<path transform="translate(202,221)" d="m0 0 2 1-3 3h-83v-2l42-1h41z" fill="#B94C2F"/>
<path transform="translate(1636,195)" d="m0 0 1 2-7 13h-43v-1l8-1v-1l29-1 2-5h4l2-4z" fill="#ccc"/>
<path transform="translate(210,184)" d="m0 0 2 2-6 11-9 10-7 3h-8v-1h6v-2l-10 1h-10v-1l19-3 7-4h5l6-8z" fill="#777879"/>
<path transform="translate(1423,101)" d="m0 0h9l-1 6-6 9-1-2 7-12-7 1-3 6-3 3-10 17-11 16-5 7-3 1 2-5 7-12 3-1 3-7 4-4 12-20z" fill="#353435"/>
<path transform="translate(893,106)" d="m0 0 4 1-9 14-1 3-1 15h-1v-18l3-7-4 4-4 10-1 6-1 26-1 12-2 1 2-42 3-10 6-10z" fill="#2C292A"/>
<path transform="translate(500,194)" d="m0 0 1 2-6 10h30v2l7 1v1h-42v-5l1 2h2l2-6z" fill="#929393"/>
<path transform="translate(1200,188)" d="m0 0h12l4 6 1 5-16 1-1-3z" fill="#170A09"/>
<path transform="translate(52,188)" d="m0 0h10l5 3 1 2v6l-15 1-1-3z" fill="#180C0B"/>
<path transform="translate(1528,101)" d="m0 0h10v1h-9l1 4v23l-1 37-4 1 1-15 1-34z" fill="#343334"/>
<path transform="translate(998,221)" d="m0 0 2 1v3h8l1 2h-67l-18-1v-1l73-1z" fill="#3C3B3C"/>
<path transform="translate(576,207)" d="m0 0h24l38 1 10 1v1h-76z" fill="#ccc"/>
<path transform="translate(705,211)" d="m0 0 10 2 3 1 1 4-5 6-2-3-1-2-3-1v-2l-14-2-41-1v-1z" fill="#933619"/>
<path transform="translate(558,102)" d="m0 0 2 1-14 24-8 13-1 4-6 8-7 8h-2l2-6 3-5h3l2-5 4-6 1-4 4-4 9-15z" fill="#3B3A3B"/>
<path transform="translate(1016,101)" d="m0 0h3v41l-1 11-2 3z" fill="#403F40"/>
<path transform="translate(550,184)" d="m0 0h3v3l3 1 3 5v4h-11l-3 1-4 4-1-2 2-5h2l1-5h2l1-4z" fill="#C1C1C1"/>
<path transform="translate(1932,170)" d="m0 0h1v7l15-3 17-1 4 2 1 4-2 2v-2h-35l-1-1z" fill="#180C0B"/>
<path transform="translate(1059,189)" d="m0 0h13v10h-2v2l-11-1z" fill="#140A09"/>
<path transform="translate(1355,183)" d="m0 0 1 2h5l-2 9-4 8-1 7h-3v-20l3-5z" fill="#462C29"/>
<path transform="translate(332,124)" d="m0 0 1 2-4 5h-75v-2l74-1z" fill="#7C7D7E"/>
<path transform="translate(1786,169)" d="m0 0 2 1-3 2-28 2h-19v-3l10-1z" fill="#FBFBFB"/>
<path transform="translate(1643,101)" d="m0 0 3 1-8 16-12 21-5 3 2-6 13-23 6-11z" fill="#4A494A"/>
<path transform="translate(708,183)" d="m0 0h11l5 2 2 4h-20l-1 15-2-2v-12l3-6z" fill="#5A5A5A"/>
<path transform="translate(808,188)" d="m0 0h9l1 2v10l-5 1-7-3v-8z" fill="#160908"/>
<path transform="translate(79,124)" d="m0 0h2v27l3 1h-13l1-2h2l2-21z" fill="#1C1A1A"/>
<path transform="translate(1891,137)" d="m0 0 59 1 1 2h-59l-10-1v-1z" fill="#444344"/>
<path transform="translate(109,128)" d="m0 0 55 1 3 2h-59l-1 21h-1v-22z" fill="#7C7D7E"/>
<path transform="translate(236,102)" d="m0 0h14l-5 4-8 8-5 9-2 4 1-7 6-10 7-6h-7l-4 1-2 4-4 4-3 9-2 4h-2l-1 5h-1v-7h2l2-6 3-7 7-7z" fill="#373637"/>
<path transform="translate(780,211)" d="m0 0h31l7 3 2 2-1 4-5 3-1-4-6-3-10-3-17-1z" fill="#933619"/>
<path transform="translate(168,156)" d="m0 0h1l1 21 14-2h20v2h2v5h-2l-1-4-21 1h-14z" fill="#180B0A"/>
<path transform="translate(886,139)" d="m0 0h1l1 33 20 1 1 2h-17l-7-2-1-2v-21l1-10z" fill="#363536"/>
<path transform="translate(392,174)" d="m0 0h25l25 1 1 2h-51z" fill="#8C8D8E"/>
<path transform="translate(1552,172)" d="m0 0 7 2 2 3v6l-2-3-8-1-13 1v-5l7-2z" fill="#160908"/>
<path transform="translate(374,113)" d="m0 0v3l-4 8-1 3-2 35 34 1v1h-29l-6-1v-33l2-10 2-4z" fill="#2D2B2C"/>
<path transform="translate(688,177)" d="m0 0 5 1 4 2 1 7-1-2-3-1h-19v-5l2-1z" fill="#250F0D"/>
<path transform="translate(734,212)" d="m0 0h31v1l-27 3v2l-8 2-3-4v-2z" fill="#933619"/>
<path transform="translate(1043,177)" d="m0 0 8 1 1 1v5l-4-1-5-1-14 2-1 2v-6l1-1z" fill="#250F0D"/>
<path transform="translate(1985,123)" d="m0 0h2l1 4 1 19h-2l-6-11-2-3 1-5z" fill="#414041"/>
<path transform="translate(1675,173)" d="m0 0 7 1 2 1 2-2-1 8-3-2h-7l-10 1h-3l1-5z" fill="#160908"/>
<path transform="translate(581,148)" d="m0 0h2l8 17 1 12h-25v-1h24l-8-15-1-8z" fill="#515152"/>
<path transform="translate(620,103)" d="m0 0 4 4 16 22 2 6-1 4-2-6-3-1-12-20-4-7z" fill="#C7C7C7"/>
<path transform="translate(1720,102)" d="m0 0h12l-4 5-7 6-6 11-2 10h-1v-7l3-9 4-7 7-6-4-1-9 6-3 1-1 3-2-1 7-8z" fill="#363536"/>
<path transform="translate(1015,174)" d="m0 0h1l1 12 3 2 1 18h-5l-1-9z" fill="#2C1513"/>
<path transform="translate(1289,138)" d="m0 0h11l-2 8-3 6-5 2 1-11z" fill="#1F1C1C"/>
<path transform="translate(1484,104)" d="m0 0 5 5 8 11 1 3h2l4 8v5l-1-2-3-1-15-25z" fill="#CACACA"/>
<path transform="translate(488,206)" d="m0 0h2v4l3 1h-96v-1l90-1z" fill="#5A5B5B"/>
<path transform="translate(1990,171)" d="m0 0h1v10l-1 2-13 2-4 8h-2l2-6 4-8 9-2 3-1z" fill="#7B7C7D"/>
<path transform="translate(1551,178)" d="m0 0 8 1 2 4v6l-2-4-5-2-11 1-5 1v-5l1-1z" fill="#250F0D"/>
<path transform="translate(1032,225)" d="m0 0h33v2l-8 1-47-1v-1z" fill="#3A393A"/>
<path transform="translate(1684,211)" d="m0 0h24l16 1v1l-11 1h-25l-17-1v-1z" fill="#923519"/>
<path transform="translate(594,169)" d="m0 0h10l13 1 2 2-16 2-7 2-3 1v-7z" fill="#070302"/>
<path transform="translate(1019,103)" d="m0 0h1v46l-2 24-2 1v-18l1-3 1-11z" fill="#2C292A"/>
<path transform="translate(965,129)" d="m0 0h11v1h-8l1 4-1 22-2 18h-1z" fill="#393839"/>
<path transform="translate(1849,116)" d="m0 0 1 2-3 12 2 16 3 10h2l-1 3-6-9-3-7v-14l4-12z" fill="#5C5C5D"/>
<path transform="translate(1413,184)" d="m0 0 4 1 2 7-5 4-4-1-5 4 2-7h2l1-4z" fill="#C2C2C2"/>
<path transform="translate(236,100)" d="m0 0m-3 1h3v2l-6 4-5 5-4 10-1 2h-2v18h-1v-19l5-12 6-7z" fill="#737475"/>
<path transform="translate(1354,179)" d="m0 0h9v6l-2 2v-2h-5-2l-2 4-2 9h-1v-12l4-6z" fill="#797A7A"/>
<path transform="translate(1818,148)" d="m0 0h8v12h-7l-1-1z" fill="#403F40"/>
<path transform="translate(1287,138)" d="m0 0 2 1-2 3-3 12-4 9v3h-6l2-5 5-10 2-6z" fill="#414142"/>
<path transform="translate(1367,122)" d="m0 0h1l2 9 2 3-1 4-5 11h-1v-13l1-13z" fill="#484848"/>
<path transform="translate(772,225)" d="m0 0h40v2l-5 1h-16l-19-1z" fill="#3A393A"/>
<path transform="translate(1525,188)" d="m0 0 4 4 4 12 2 2h-10z" fill="#2E1311"/>
<path transform="translate(662,187)" d="m0 0 4 2 3 17h-7z" fill="#2A110F"/>
<path transform="translate(508,181)" d="m0 0h1l-1 9-3 5-5 11h-5l2-5 3-5 3-7z" fill="#452724"/>
<path transform="translate(1419,109)" d="m0 0 1 2-12 21-10 15-6 8h-4v-2l4-2 11-16 8-13z" fill="#2D2C2D"/>
<path transform="translate(700,148)" d="m0 0 4 2 9 10-1 2-6-3h-2l-3 6h-1z" fill="#F6F6F6"/>
<path transform="translate(1059,211)" d="m0 0 9 1 2 5h2l-1 4-4 1v-2l-8-4-6-2v-2z" fill="#933619"/>
<path transform="translate(1368,186)" d="m0 0 2 1-1 6-5 12-1 1h-5l1-5z" fill="#4D2F2D"/>
<path transform="translate(754,207)" d="m0 0h24l22 1v1l-6 1h-31v-1l-9-1z" fill="#ccc"/>
<path transform="translate(1016,174)" d="m0 0h13l2 2-2 1-2 6-4-2h-7z" fill="#060302"/>
<path transform="translate(360,119)" d="m0 0 1 3-2 7-2 18-1 16h-2v-14l2-22 3-7z" fill="#414041"/>
<path transform="translate(107,153)" d="m0 0h1l1 18 1 3 3 1 54 1v1h-58l-2-3z" fill="#727373"/>
<path transform="translate(505,107)" d="m0 0 2 1v2l4 2 7 6-3 7-4-5-5-6-1 5h-1v-9z" fill="#7C7D7E"/>
<path transform="translate(706,196)" d="m0 0 10 3v2h2l1-3 15-1 1 4-16 1 1 5-8-6-6-2z" fill="#250F0E"/>
<path transform="translate(1649,188)" d="m0 0 4 1 1 2 1 14-1 1h-5z" fill="#29100E"/>
<path transform="translate(1862,177)" d="m0 0 20 1 2 2-13 3-6 1-4-2z" fill="#170A09"/>
<path transform="translate(1623,163)" d="m0 0h39v1h-14l-1 4v-2l-43-1v-1z" fill="#292627"/>
<path transform="translate(1382,170)" d="m0 0h9l9 1v1h-10l-2 4-6 2-4-1-1-4z" fill="#070302"/>
<path transform="translate(1373,178)" d="m0 0 1 2-2 13-2 5v7l-1 1h-6l6-16v-6z" fill="#2A1715"/>
<path transform="translate(1620,142)" d="m0 0 1 2-7 15-1 3h10v2h-16v-3h3l2-6 6-12z" fill="#6A6A6B"/>
<path transform="translate(1863,112)" d="m0 0h2l-2 5-3 7-1 5v11l4 13 16 1v1h-17l-3-5-2-8v-17l5-12z" fill="#353435"/>
<path transform="translate(1407,127)" d="m0 0v3l-7 11-8 11-3 1 2-5 7-12 3-1 3-7z" fill="#4D4C4D"/>
<path transform="translate(1322,138)" d="m0 0h25l-1 33h-1v-31h-23z" fill="#3A393A"/>
<path transform="translate(1201,178)" d="m0 0h10l4 9-1 2-2-4-7-1-6 1v-5z" fill="#7C7D7E"/>
<path transform="translate(502,102)" d="m0 0h2l1 2-2 37h-1l-1-33z" fill="#ccc"/>
<path transform="translate(1836,187)" d="m0 0h9l2 3v4h-2l-1 5-7-6z" fill="#281210"/>
<path transform="translate(1367,105)" d="m0 0 3 3v2h2l8 8-1 6-3-1-7-10h-2z" fill="#7C7D7E"/>
<path transform="translate(1446,147)" d="m0 0 2 1 1 5 5 12v8l-3-4-4-7-2-14z" fill="#414142"/>
<path transform="translate(53,183)" d="m0 0h8l5 5v3l-4-2-10-1v5h-1v-9z" fill="#4D4D4D"/>
<path transform="translate(910,173)" d="m0 0h2l1 2 50 1v1l-51 1-2-1z" fill="#717272"/>
<path transform="translate(1230,163)" d="m0 0h2l1 7 1 1 19 1 4 4-3 1-1-2-21-1-2-1z" fill="#373637"/>
<path transform="translate(560,102)" d="m0 0 1 2-13 23-9 14-2-1 9-15z" fill="#2C2A2B"/>
<path transform="translate(1646,101)" d="m0 0h8l-1 4v-3l-6 1-8 17-8 14h-2l2-5 10-19z" fill="#2D2C2D"/>
<path transform="translate(1203,183)" d="m0 0h7l3 2 2 7-3-2v-2h-12v6h-1v-9z" fill="#3E3B3B"/>
<path transform="translate(172,129)" d="m0 0h6v1h-5l1 25-1 1h-5l1-10 2-1z" fill="#353435"/>
<path transform="translate(74,125)" d="m0 0h1l-1 19-2 7-1 1-1 21h-1v-22l2-5 1-17z" fill="#3B3838"/>
<path transform="translate(1515,177)" d="m0 0h2l2 7v11h-2l-4-10-1-5h3z" fill="#6B6B6C"/>
<path transform="translate(1864,102)" d="m0 0h13l-4 4-8 6 2-4 4-4h-6l-8 6-4 5-3 1 2-5 9-8z" fill="#474647"/>
<path transform="translate(652,176)" d="m0 0 3 4 1 4v11h-2l-4-10v-5h2z" fill="#5F5A5A"/>
<path transform="translate(998,221)" d="m0 0 2 1v3h8l1 2h-33v-1l21-2z" fill="#3D3939"/>
<path transform="translate(211,188)" d="m0 0 3 3 3 6v2h-12l2-5z" fill="#251110"/>
<path transform="translate(858,186)" d="m0 0h9l3 3v2h-15v-4z" fill="#2E2A2A"/>
<path transform="translate(237,103)" d="m0 0h8l-6 7-1-3-8 6-4 2 2-4 5-6z" fill="#2C2A2B"/>
<path transform="translate(507,190)" d="m0 0h1l-1 13 1 3h-8l1-5 5-10z" fill="#250F0D"/>
<path transform="translate(808,188)" d="m0 0h9l1 2v10l-5 1-7-3v-8zm0 2-1 5 5 3 5 1v-8l-1-1z" fill="#251514"/>
<path transform="translate(537,141)" d="m0 0v3l-6 8-7 8h-2l2-6 3-5h3l1-3z" fill="#3E3D3E"/>
<path transform="translate(1636,195)" d="m0 0 1 2-7 13-1-2-4-1 3-6h2l2-4z" fill="#78797A"/>
<path transform="translate(1580,191)" d="m0 0 4 1v2h2l8 11v1h-5l-6-9-1-4h-2z" fill="#45211E"/>
<path transform="translate(706,186)" d="m0 0h19l1 3h-20l-1 2z" fill="#363435"/>
<path transform="translate(1974,190)" d="m0 0 1 2-1 3 10 2 4-1v4l-4 1-13-2 1-6z" fill="#291513"/>
<path transform="translate(1706,114)" d="m0 0 1 3-3 11-2 3-1 21h-1v-24l4-11z" fill="#454445"/>
<path transform="translate(713,152)" d="m0 0 4 4 3 7-2 4-5-5-1-6z" fill="#3E3D3E"/>
<path transform="translate(662,182)" d="m0 0 5 1 1 3 1 12 1 6-2 1-2-16-4-2z" fill="#160908"/>
<path transform="translate(1855,190)" d="m0 0 1 4-3 12h-8l5-6z" fill="#44201C"/>
<path transform="translate(493,186)" d="m0 0 4 1-2 9-1 2h-3v-9z" fill="#422C2A"/>
<path transform="translate(374,113)" d="m0 0v3l-4 8-1 3-1 21h-1v-25l3-7z" fill="#373637"/>
<path transform="translate(1624,139)" d="m0 0v3l-7 13-1 6h6v1h-9l1-6 8-15z" fill="#3A393A"/>
<path transform="translate(871,195)" d="m0 0 2 1v3l-10 1h-6l-1-3z" fill="#28110F"/>
<path transform="translate(1836,185)" d="m0 0h14l-1 5-2 2-1-2-3-2-7-1-1 4v-5z" fill="#4E4645"/>
<path transform="translate(1649,206)" d="m0 0h23l-2 3h-20z" fill="#767778"/>
<path transform="translate(95,150)" d="m0 0 10 1 1 5-1-3h-18l-3-2z" fill="#2B292A"/>
<path transform="translate(967,139)" d="m0 0h1v17l-2 18h-1v-20h2z" fill="#332F30"/>
<path transform="translate(1626,201)" d="m0 0h2l-1 4-1 2 3 1v2h-10l-10-1v-1l12-1 3-1z" fill="#B0B0B0"/>
<path transform="translate(1597,198)" d="m0 0 2 2 2 6h-7l-4-5 1-2 5 1z" fill="#250F0D"/>
<path transform="translate(1423,194)" d="m0 0 8 6 3 4v2l-5-1-6-9z" fill="#441F1B"/>
<path transform="translate(1990,181)" d="m0 0h1v5h-3l-11 1-2 1 2-4 3-1h10z" fill="#5A5A5A"/>
<path transform="translate(819,182)" d="m0 0h1v5h-3l-11 1v-3l5-2h7z" fill="#5A5A5A"/>
<path transform="translate(505,126)" d="m0 0 3 6v6l-3 3h-2l1-14z" fill="#3E3D3E"/>
<path transform="translate(89,104)" d="m0 0m-1 1m-2 1h2v2l-5 4-4 6-3 7h-2l1-5 6-9z" fill="#3A393A"/>
<path transform="translate(1215,194)" d="m0 0 2 4v1l-16 1v-3l12-1 2 1z" fill="#27110F"/>
<path transform="translate(225,113)" d="m0 0h1v5l-4 8h-2l-1 5h-1v-7h2l2-6z" fill="#363536"/>
<path transform="translate(67,193)" d="m0 0h1v6l-15 1v-3l13-1z" fill="#281210"/>
<path transform="translate(1314,166)" d="m0 0h6l2 1v3h-11l-1-3z" fill="#232222"/>
<path transform="translate(360,119)" d="m0 0 1 3-2 7-1 8h-2v-10l3-7z" fill="#3A393A"/>
<path transform="translate(1642,186)" d="m0 0h1v11l-3-2-4 4 3-9z" fill="#2D1E1C"/>
<path transform="translate(1419,107)" d="m0 0v3l-10 17h-2l2-5 9-14z" fill="#3A393A"/>
<path transform="translate(718,206)" d="m0 0 6 5 1 3-5 3-2-8z" fill="#2C2A2B"/>
<path transform="translate(1200,188)" d="m0 0h12l1 3h-13z" fill="#241C1C"/>
<path transform="translate(473,148)" d="m0 0 24 1v1l-21 1-2 7h-1z" fill="#2C2A2B"/>
<path transform="translate(1720,102)" d="m0 0 3 1-10 7-3 1-1 3-2-1 7-8z" fill="#494949"/>
<path transform="translate(719,160)" d="m0 0 3 3 2 5-2 4-4-4z" fill="#2E2C2D"/>
<path transform="translate(561,196)" d="m0 0 4 2 6 7v1h-5l-5-8z" fill="#44201C"/>
<path transform="translate(1517,182)" d="m0 0 2 2v11h-2l-2-4 1-8z" fill="#473939"/>
<path transform="translate(859,183)" d="m0 0h7l2 4h-13l1-3z" fill="#5A5A5A"/>
<path transform="translate(1864,102)" d="m0 0h13l-4 4-8 6 2-4 4-4h-8z" fill="#3B3A3B"/>
<path transform="translate(1496,120)" d="m0 0 2 1v2h2l4 8v5l-3-4-5-10z" fill="#7C7D7E"/>
<path transform="translate(634,122)" d="m0 0 5 5 3 8-1 4-7-15z" fill="#7C7D7E"/>
<path transform="translate(236,102)" d="m0 0 4 1-7 2-2 4-6 5v-3l7-7z" fill="#4D4D4D"/>
<path transform="translate(1203,183)" d="m0 0h7l3 2-1 2h-13l1-3z" fill="#5A5A5A"/>
<path transform="translate(1008,184)" d="m0 0h1v14l-1-4-4 1 2-7z" fill="#23100E"/>
<path transform="translate(52,188)" d="m0 0h10l5 3v2l-11-2z" fill="#262121"/>
<path transform="translate(1059,195)" d="m0 0 11 4v2l-11-1z" fill="#250F0D"/>
<path transform="translate(1450,156)" d="m0 0 4 4 2 4-1 10h-1l-2-12z" fill="#2C2A2B"/>
<path transform="translate(1357,188)" d="m0 0 2 1-1 7-3 1v-7z" fill="#321E1C"/>
<path transform="translate(726,176)" d="m0 0h5l2 8-4-2-3-4z" fill="#0F0C0B"/>
<path transform="translate(584,146)" d="m0 0 5 1 2 4-4-2-2 6-2-5z" fill="#322D2E"/>
<path transform="translate(1859,155)" d="m0 0h9v1l-6 1-5 5 1-6z" fill="#160908"/>
<path transform="translate(540,133)" d="m0 0v3l-6 9-2 1 2-5z" fill="#3A393A"/>
<path transform="translate(210,88)" d="m0 0" fill="#FCFCFC"/>
</svg>
